<svg width="197" height="49" viewBox="0 0 197 49" fill="none" xmlns="http://www.w3.org/2000/svg">
<g clip-path="url(#clip0_179_126)">
<path d="M6.69 48.48C4.68 48.48 3.07 48.02 1.87 47.09C0.67 46.17 0.05 44.82 0 43.04H3.33C3.39 43.89 3.73 44.52 4.35 44.94C4.97 45.36 5.74 45.57 6.66 45.57C7.58 45.57 8.31 45.37 8.87 44.98C9.43 44.59 9.71 44.07 9.71 43.44C9.71 42.86 9.46 42.42 8.95 42.11C8.45 41.8 7.74 41.54 6.82 41.31L4.98 40.85C3.56 40.51 2.46 39.96 1.66 39.23C0.86 38.5 0.46 37.52 0.46 36.3C0.46 35.29 0.73 34.41 1.27 33.65C1.81 32.89 2.56 32.31 3.51 31.89C4.46 31.47 5.54 31.26 6.75 31.26C7.96 31.26 9.06 31.47 9.98 31.89C10.9 32.31 11.62 32.9 12.14 33.65C12.66 34.4 12.92 35.27 12.94 36.25H9.63C9.57 35.58 9.28 35.06 8.77 34.69C8.26 34.32 7.57 34.14 6.72 34.14C5.87 34.14 5.17 34.32 4.69 34.68C4.21 35.04 3.98 35.51 3.98 36.07C3.98 36.69 4.25 37.16 4.78 37.46C5.32 37.77 5.94 38.01 6.65 38.18L8.17 38.55C9.11 38.77 9.95 39.08 10.71 39.49C11.47 39.9 12.06 40.43 12.51 41.07C12.95 41.72 13.17 42.51 13.17 43.45C13.17 44.97 12.6 46.18 11.47 47.09C10.34 48 8.75 48.45 6.71 48.45L6.69 48.48Z" fill="white"/>
<path d="M18.51 48.48C17.31 48.48 16.32 48.16 15.52 47.53C14.72 46.9 14.33 45.96 14.33 44.72C14.33 43.78 14.55 43.05 15 42.52C15.45 41.99 16.03 41.6 16.75 41.35C17.47 41.1 18.24 40.94 19.06 40.87C20.14 40.76 20.91 40.65 21.39 40.54C21.87 40.42 22.1 40.16 22.1 39.75V39.69C22.1 39.16 21.93 38.75 21.59 38.45C21.25 38.15 20.76 38.01 20.14 38.01C19.52 38.01 18.96 38.15 18.57 38.43C18.17 38.71 17.91 39.05 17.77 39.46L14.68 38.94C15 37.86 15.64 37.01 16.61 36.41C17.57 35.81 18.75 35.51 20.15 35.51C21.05 35.51 21.9 35.65 22.72 35.94C23.53 36.22 24.2 36.68 24.71 37.3C25.22 37.92 25.48 38.75 25.48 39.76V48.22H22.29V46.48H22.18C21.87 47.06 21.42 47.54 20.81 47.91C20.2 48.28 19.44 48.47 18.51 48.47V48.48ZM19.47 46.11C20.26 46.11 20.9 45.88 21.4 45.43C21.9 44.97 22.15 44.41 22.15 43.75V42.39C22.02 42.49 21.8 42.57 21.49 42.64C21.19 42.71 20.87 42.77 20.53 42.83C20.19 42.89 19.9 42.93 19.65 42.96C19.03 43.05 18.53 43.23 18.14 43.49C17.76 43.75 17.57 44.13 17.57 44.64C17.57 45.15 17.75 45.5 18.1 45.75C18.45 46 18.91 46.13 19.47 46.13V46.11Z" fill="white"/>
<path d="M31.2 40.97V48.24H27.83V35.68H31.01L31.05 38.27C31.4 37.39 31.9 36.72 32.54 36.24C33.18 35.76 33.99 35.52 34.95 35.52C36.25 35.52 37.3 35.94 38.08 36.78C38.87 37.62 39.26 38.78 39.26 40.25V48.24H35.89V40.84C35.89 40.06 35.69 39.45 35.29 39.01C34.89 38.57 34.33 38.35 33.62 38.35C32.91 38.35 32.32 38.58 31.86 39.04C31.41 39.5 31.18 40.15 31.18 40.98L31.2 40.97Z" fill="white"/>
<path d="M47.71 35.6801V38.2501H45.36V44.5601C45.36 45.3401 45.74 45.7301 46.51 45.7301C46.64 45.7301 46.81 45.7101 47.04 45.6801C47.27 45.6501 47.45 45.6101 47.57 45.5801L48.05 48.1101C47.68 48.2201 47.3 48.3001 46.93 48.3501C46.56 48.3901 46.21 48.4201 45.87 48.4201C44.61 48.4201 43.65 48.1101 42.98 47.5001C42.31 46.8901 41.98 46.0101 41.98 44.8501V38.2501H40.25V35.6801H41.98V32.6901H45.35V35.6801H47.7H47.71Z" fill="white"/>
<path d="M52.84 48.48C51.64 48.48 50.65 48.16 49.85 47.53C49.05 46.9 48.66 45.96 48.66 44.72C48.66 43.78 48.88 43.05 49.33 42.52C49.78 41.99 50.36 41.6 51.08 41.35C51.8 41.1 52.57 40.94 53.39 40.87C54.47 40.76 55.24 40.65 55.72 40.54C56.2 40.42 56.43 40.16 56.43 39.75V39.69C56.43 39.16 56.26 38.75 55.92 38.45C55.58 38.15 55.09 38.01 54.47 38.01C53.85 38.01 53.29 38.15 52.9 38.43C52.5 38.71 52.24 39.05 52.1 39.46L49.01 38.94C49.33 37.86 49.97 37.01 50.94 36.41C51.9 35.81 53.08 35.51 54.48 35.51C55.38 35.51 56.23 35.65 57.05 35.94C57.86 36.22 58.53 36.68 59.04 37.3C59.55 37.92 59.81 38.75 59.81 39.76V48.22H56.62V46.48H56.51C56.2 47.06 55.75 47.54 55.14 47.91C54.53 48.28 53.77 48.47 52.84 48.47V48.48ZM53.8 46.11C54.59 46.11 55.23 45.88 55.73 45.43C56.23 44.97 56.48 44.41 56.48 43.75V42.39C56.35 42.49 56.13 42.57 55.82 42.64C55.52 42.71 55.2 42.77 54.86 42.83C54.52 42.89 54.23 42.93 53.98 42.96C53.36 43.05 52.86 43.23 52.47 43.49C52.09 43.75 51.9 44.13 51.9 44.64C51.9 45.15 52.08 45.5 52.43 45.75C52.78 46 53.24 46.13 53.8 46.13V46.11Z" fill="white"/>
<path d="M67.0699 48.23V31.5H78.0799V34.34H70.4999V39.01H77.3399V41.81H70.4999V48.23H67.0699Z" fill="white"/>
<path d="M85.17 48.48C83.89 48.48 82.79 48.22 81.86 47.69C80.93 47.17 80.22 46.42 79.72 45.45C79.22 44.48 78.97 43.34 78.97 42.01C78.97 40.68 79.22 39.58 79.72 38.61C80.22 37.64 80.92 36.88 81.82 36.33C82.72 35.78 83.78 35.51 85 35.51C86.09 35.51 87.08 35.74 87.98 36.21C88.87 36.67 89.58 37.38 90.11 38.32C90.64 39.26 90.9 40.45 90.9 41.88V42.82H82.31C82.35 43.85 82.63 44.62 83.16 45.15C83.69 45.67 84.38 45.94 85.23 45.94C85.82 45.94 86.33 45.81 86.75 45.56C87.17 45.31 87.47 44.94 87.65 44.45L90.7 45.02C90.39 46.06 89.76 46.9 88.8 47.52C87.84 48.14 86.63 48.46 85.17 48.46V48.48ZM82.33 40.72H87.65C87.57 39.9 87.31 39.26 86.86 38.78C86.42 38.3 85.81 38.06 85.03 38.06C84.25 38.06 83.58 38.31 83.12 38.81C82.66 39.31 82.39 39.95 82.32 40.72H82.33Z" fill="white"/>
<path d="M104.98 48.46C103.42 48.46 102.04 48.11 100.86 47.42C99.68 46.73 98.76 45.74 98.1 44.46C97.44 43.18 97.11 41.66 97.11 39.89C97.11 38.12 97.45 36.54 98.14 35.25C98.83 33.96 99.76 32.98 100.94 32.3C102.12 31.62 103.44 31.28 104.91 31.28C106.17 31.28 107.31 31.52 108.32 32C109.34 32.48 110.17 33.14 110.82 33.98C111.47 34.82 111.88 35.79 112.03 36.89H108.55C108.31 36.09 107.88 35.46 107.27 35C106.66 34.54 105.89 34.31 104.96 34.31C103.67 34.31 102.62 34.79 101.81 35.75C101 36.71 100.59 38.08 100.59 39.85C100.59 41.62 100.99 42.99 101.79 43.96C102.59 44.93 103.66 45.41 105 45.41C106.19 45.41 107.13 45.1 107.81 44.47C108.49 43.84 108.85 42.99 108.88 41.92H105.24V39.31H112.2V41.4C112.2 42.87 111.89 44.13 111.27 45.18C110.65 46.23 109.8 47.04 108.71 47.61C107.63 48.17 106.38 48.46 104.98 48.46Z" fill="white"/>
<path d="M117.7 31.5V48.23H114.33V31.5H117.7Z" fill="white"/>
<path d="M125.62 48.48C124.36 48.48 123.27 48.21 122.35 47.67C121.43 47.13 120.72 46.37 120.22 45.4C119.72 44.43 119.47 43.3 119.47 42.01C119.47 40.72 119.72 39.58 120.22 38.61C120.72 37.64 121.43 36.88 122.35 36.34C123.27 35.8 124.36 35.53 125.62 35.53C126.88 35.53 127.97 35.8 128.89 36.34C129.81 36.88 130.52 37.64 131.02 38.61C131.52 39.58 131.77 40.72 131.77 42.01C131.77 43.3 131.52 44.43 131.02 45.4C130.52 46.37 129.81 47.13 128.89 47.67C127.97 48.21 126.88 48.48 125.62 48.48ZM125.62 45.83C126.52 45.83 127.2 45.47 127.65 44.74C128.11 44.01 128.33 43.1 128.33 42C128.33 40.9 128.1 39.98 127.65 39.25C127.19 38.53 126.52 38.17 125.62 38.17C124.72 38.17 124.05 38.53 123.59 39.25C123.14 39.97 122.91 40.89 122.91 42C122.91 43.11 123.14 44.01 123.59 44.74C124.04 45.47 124.72 45.83 125.62 45.83Z" fill="white"/>
<path d="M140.59 48.44C139.91 48.44 139.33 48.32 138.86 48.09C138.39 47.86 138 47.57 137.71 47.23C137.42 46.89 137.19 46.55 137.03 46.21H136.87V48.22H133.56V31.49H136.93V37.78H137.03C137.18 37.45 137.4 37.11 137.69 36.76C137.98 36.41 138.36 36.11 138.84 35.87C139.32 35.63 139.91 35.51 140.62 35.51C141.55 35.51 142.4 35.75 143.17 36.23C143.94 36.71 144.56 37.43 145.02 38.39C145.48 39.35 145.71 40.54 145.71 41.97C145.71 43.4 145.49 44.54 145.04 45.5C144.59 46.46 143.98 47.19 143.21 47.69C142.44 48.19 141.57 48.44 140.6 48.44H140.59ZM139.56 45.73C140.44 45.73 141.1 45.38 141.56 44.67C142.02 43.97 142.25 43.06 142.25 41.95C142.25 40.84 142.02 39.95 141.57 39.25C141.11 38.55 140.44 38.2 139.56 38.2C138.68 38.2 138.02 38.54 137.56 39.22C137.09 39.9 136.86 40.81 136.86 41.95C136.86 43.09 137.1 44 137.57 44.69C138.04 45.38 138.71 45.72 139.57 45.72L139.56 45.73Z" fill="white"/>
<path d="M150.91 48.48C149.71 48.48 148.72 48.16 147.92 47.53C147.12 46.9 146.73 45.96 146.73 44.72C146.73 43.78 146.95 43.05 147.4 42.52C147.85 41.99 148.43 41.6 149.15 41.35C149.87 41.1 150.64 40.94 151.46 40.87C152.54 40.76 153.31 40.65 153.79 40.54C154.27 40.42 154.5 40.16 154.5 39.75V39.69C154.5 39.16 154.33 38.75 153.99 38.45C153.65 38.15 153.16 38.01 152.54 38.01C151.92 38.01 151.36 38.15 150.97 38.43C150.57 38.71 150.31 39.05 150.17 39.46L147.08 38.94C147.4 37.86 148.04 37.01 149.01 36.41C149.97 35.81 151.15 35.51 152.55 35.51C153.45 35.51 154.3 35.65 155.12 35.94C155.93 36.22 156.6 36.68 157.11 37.3C157.62 37.92 157.88 38.75 157.88 39.76V48.22H154.69V46.48H154.58C154.27 47.06 153.82 47.54 153.21 47.91C152.6 48.28 151.84 48.47 150.91 48.47V48.48ZM151.87 46.11C152.66 46.11 153.3 45.88 153.8 45.43C154.3 44.97 154.55 44.41 154.55 43.75V42.39C154.42 42.49 154.2 42.57 153.89 42.64C153.59 42.71 153.27 42.77 152.93 42.83C152.59 42.89 152.3 42.93 152.05 42.96C151.43 43.05 150.93 43.23 150.54 43.49C150.16 43.75 149.97 44.13 149.97 44.64C149.97 45.15 150.15 45.5 150.5 45.75C150.85 46 151.31 46.13 151.87 46.13V46.11Z" fill="white"/>
<path d="M163.6 31.5V48.23H160.23V31.5H163.6Z" fill="white"/>
<path d="M174.12 38.51L151.88 0H196.36L174.12 38.51Z" fill="url(#paint0_linear_179_126)"/>
<path d="M157.84 22.24L196.36 0V44.47L157.84 22.24Z" fill="url(#paint1_linear_179_126)"/>
<path d="M177.1 33.35L196.36 0L163 19.26L168.16 28.19L177.1 33.35Z" fill="url(#paint2_linear_179_126)"/>
</g>
<defs>
<linearGradient id="paint0_linear_179_126" x1="166.8" y1="-6.8" x2="205.65" y2="48.1" gradientUnits="userSpaceOnUse">
<stop stop-color="#FFCB02"/>
<stop offset="0.33" stop-color="#FF7402"/>
<stop offset="0.66" stop-color="#E42153"/>
<stop offset="1" stop-color="#3C3AE5"/>
</linearGradient>
<linearGradient id="paint1_linear_179_126" x1="165.21" y1="-5.68" x2="204.07" y2="49.22" gradientUnits="userSpaceOnUse">
<stop stop-color="#FFCB02"/>
<stop offset="0.33" stop-color="#FF7402"/>
<stop offset="0.66" stop-color="#E42153"/>
<stop offset="1" stop-color="#3C3AE5"/>
</linearGradient>
<linearGradient id="paint2_linear_179_126" x1="136.61" y1="2.4" x2="198.56" y2="20.05" gradientUnits="userSpaceOnUse">
<stop stop-color="#FFCB02"/>
<stop offset="0.33" stop-color="#FF7402"/>
<stop offset="0.66" stop-color="#E42153"/>
<stop offset="1" stop-color="#3C3AE5"/>
</linearGradient>
<clipPath id="clip0_179_126">
<rect width="196.36" height="48.48" fill="white"/>
</clipPath>
</defs>
</svg>
