<?xml version="1.0" encoding="utf-8"?>
<!-- Generator: Adobe Illustrator 19.0.0, SVG Export Plug-In . SVG Version: 6.00 Build 0)  -->
<svg version="1.1" id="layer"  xmlns="http://www.w3.org/2000/svg" xmlns:xlink="http://www.w3.org/1999/xlink" x="0px" y="0px"
	 viewBox="-153 -46 652 652" style="enable-background:new -153 -46 652 652;" xml:space="preserve">
<style type="text/css">
	.st0{fill:#28A1CA;}
	.st1{fill:#4E4D4D;}
</style>
<path class="st0" d="M11.4,280.5c0-12.4-3.3-24.1-9.1-34.2c-6-16-17.8-29.2-32.8-37.1c-0.4-0.2-0.5-0.7-0.4-1.1
	c0.1-0.4,0.6-0.7,1-0.5c28,7.3,48.7,32.7,48.7,62.9c0,13.1-3.8,25.2-10.5,35.4c-0.3,0.5-0.8,0.5-1.1,0.3c-0.4-0.2-0.5-0.7-0.4-1.1
	C9.7,297.6,11.4,289.3,11.4,280.5 M-57.9,345.7c-14.4,0-27.7-4.7-38.5-12.7c-0.4-0.3-0.4-0.8-0.2-1.1c0.2-0.4,0.7-0.6,1.2-0.4
	c9.8,5.4,21,8.4,33,8.4c2.8,0,5.5-0.2,8.1-0.5c2.7,0.3,5.4,0.5,8.1,0.5c4.9,0,9.6-0.5,14.2-1.5c0.5-0.1,0.9,0.2,1,0.7
	c0.1,0.4-0.1,0.8-0.5,0.9C-39.6,343.6-48.5,345.7-57.9,345.7 M-77.9,208.3c0.2,0.4-0.1,0.8-0.4,1c-6.8,3.6-13,8.2-18.2,13.8
	c-15,10.1-25.8,25.9-29.3,44.3c-0.1,0.5-0.6,0.7-0.9,0.7c-0.2,0-0.8-0.2-0.8-0.9c1.5-28.7,21.7-52.4,48.6-59.4
	C-78.4,207.6-78,207.9-77.9,208.3 M-57.9,211.3c-4.9,0-9.6,0.5-14.2,1.5c-0.4,0.1-0.8-0.1-1-0.5c-0.2-0.5,0-1,0.4-1.1
	c5.7-2.5,11.8-4.2,18.2-5c11.3,1.4,21.7,5.7,30.4,12.2c0.4,0.3,0.4,0.8,0.2,1.2c-0.2,0.3-0.6,0.5-1.1,0.3
	C-34.7,214.3-45.9,211.3-57.9,211.3 M-118.9,303c-2.6-7-4.1-14.6-4.1-22.5c0-13.1,3.9-25.2,10.5-35.4c0.3-0.4,0.7-0.5,1.1-0.3
	c0.4,0.2,0.6,0.7,0.4,1.1c-3,7.7-4.6,16-4.6,24.7c0,26.7,15.2,49.8,37.3,61.4c0.5,0.3,0.5,0.7,0.4,1.1c-0.2,0.4-0.6,0.6-1.1,0.5
	C-96,329.1-110.3,317.9-118.9,303 M2.6,270.7c0,33.1-24.9,60.6-57,64.6c-32.1-4-57-31.4-57-64.6c0-17.1,6.7-32.7,17.6-44.3
	c10.3-6.9,22.7-10.9,35.9-10.9c24.1,0,45.2,13.2,56.4,32.8C1.2,255.2,2.6,262.7,2.6,270.7 M7.2,284c-0.8,15.8-7.4,30-17.5,40.8
	c-5.9,3.9-12.5,6.9-19.5,8.7c-0.5,0.2-0.9-0.1-1.1-0.5c-0.1-0.3-0.1-0.8,0.5-1c18.3-9.6,31.8-27.2,35.9-48.2c0.1-0.5,0.5-0.8,1-0.7
	C6.8,283.2,7.2,283.5,7.2,284 M23,270.7c0-38.2-31.1-69.3-69.3-69.3c-2.7,0-5.4,0.2-8.1,0.5c-2.7-0.3-5.3-0.5-8.1-0.5
	c-38.2,0-69.2,31.1-69.2,69.3c0,12.4,3.3,24.1,9.1,34.2c9.9,26.2,35.2,45,64.8,45c19.8,0,37.6-8.4,50.2-21.7
	C10.8,315.7,23,294.6,23,270.7"/>
<path class="st1" d="M59.7,231.3h7l-3.5-11.3L59.7,231.3z M70.3,243l-2.2-7h-9.8l-2.2,7h-5.7l8.5-26.4h8.5L76,243H70.3z M88.8,238.2
	c0.6-0.2,1-0.5,1.4-0.9v-9.6c-0.7-0.2-1.5-0.2-2.3-0.2c-1.6,0-2.8,0.4-3.6,1.3c-0.8,0.9-1.2,2.3-1.2,4.3c0,2,0.3,3.3,1,4.1
	c0.7,0.8,1.7,1.2,3,1.2C87.7,238.5,88.3,238.4,88.8,238.2 M78.7,250.4v-4.5c2.1,0.6,4.1,0.9,6.1,0.9c1.3,0,2.3-0.2,3.1-0.5
	c0.8-0.3,1.4-0.8,1.8-1.5c0.4-0.7,0.6-1.6,0.6-2.7v-1.3H90c-0.6,0.7-1.3,1.2-2.1,1.6c-0.9,0.4-1.8,0.6-2.9,0.6c-1.4,0-2.7-0.3-3.8-1
	c-1.1-0.7-2.1-1.7-2.7-3.2c-0.7-1.4-1-3.2-1-5.3c0-3.4,0.9-6,2.8-7.8c1.9-1.8,4.6-2.7,8.3-2.7c1.3,0,2.6,0.1,3.9,0.3
	c1.3,0.2,2.5,0.4,3.6,0.8v16.9c0,2.3-0.4,4.3-1.2,5.7c-0.8,1.5-2,2.6-3.5,3.3c-1.6,0.7-3.6,1-6,1C82.9,251.2,80.7,250.9,78.7,250.4
	 M105.9,227.9c-0.5,0.7-0.8,2-0.9,3.7h6.5c0-1.7-0.3-3-0.8-3.7c-0.5-0.7-1.3-1.1-2.4-1.1C107.2,226.8,106.4,227.2,105.9,227.9
	 M116.9,234.9H105c0.1,1,0.3,1.9,0.7,2.5c0.4,0.6,1,1,1.8,1.3c0.8,0.3,1.9,0.4,3.4,0.4c1.5,0,3.1-0.2,4.9-0.6v4.3
	c-1.9,0.4-3.8,0.7-5.7,0.7c-2.5,0-4.5-0.4-6.1-1.1c-1.6-0.7-2.7-1.8-3.5-3.3c-0.8-1.5-1.1-3.4-1.1-5.8c0-2.1,0.4-4,1.1-5.5
	c0.7-1.5,1.7-2.6,3.1-3.4c1.4-0.8,3-1.2,4.9-1.2c2.8,0,4.9,0.9,6.3,2.6c1.4,1.7,2.2,4.3,2.2,7.6V234.9z M120,223.5h4.7l0.4,2h0.3
	c0.7-0.7,1.6-1.3,2.5-1.7c1-0.4,2-0.6,3.2-0.6c2.1,0,3.7,0.6,4.9,1.9c1.2,1.2,1.8,3.2,1.8,5.8V243H132v-11.8c0-1.1-0.2-1.9-0.7-2.4
	c-0.5-0.5-1.1-0.7-2.1-0.7c-0.7,0-1.3,0.1-2,0.4c-0.6,0.3-1.2,0.7-1.6,1.2V243H120V223.5z M143.5,240.8c-1.7-1.7-2.6-4.2-2.6-7.6
	c0-3.4,0.9-5.9,2.8-7.6c1.8-1.7,4.5-2.5,8-2.5c1.6,0,3.1,0.1,4.4,0.4v4.5c-1.3-0.3-2.4-0.4-3.6-0.4c-1.3,0-2.4,0.2-3.2,0.6
	c-0.8,0.4-1.4,1-1.8,1.8c-0.4,0.8-0.6,1.9-0.6,3.2c0,2,0.4,3.4,1.3,4.2c0.8,0.9,2.1,1.3,3.9,1.3c0.6,0,1.2,0,1.9-0.1
	c0.6-0.1,1.4-0.3,2.2-0.5v4.5c-1.5,0.5-3.1,0.7-5,0.7C147.8,243.4,145.3,242.5,143.5,240.8 M159.3,223.5h5.7V243h-5.7V223.5z
	 M159.5,219.9c-0.6-0.5-0.9-1.2-0.9-2.2c0-1,0.3-1.7,0.9-2.2c0.6-0.5,1.5-0.8,2.7-0.8c1.2,0,2.1,0.3,2.6,0.8
	c0.6,0.5,0.9,1.3,0.9,2.2c0,0.9-0.3,1.7-0.9,2.2c-0.6,0.5-1.5,0.8-2.6,0.8C161,220.6,160.1,220.4,159.5,219.9 M178.1,239.1
	c0.5-0.2,1-0.5,1.4-0.9v-3.7l-2.6,0.2c-1.1,0.1-1.8,0.3-2.3,0.7c-0.5,0.4-0.7,1-0.7,1.7c0,0.7,0.2,1.3,0.7,1.7
	c0.4,0.4,1.1,0.6,1.9,0.6C177,239.4,177.6,239.3,178.1,239.1 M181.3,224c1.3,0.5,2.3,1.4,2.9,2.6c0.6,1.2,0.9,2.8,0.9,4.9V243h-4.7
	l-0.4-1.9h-0.3c-0.6,0.8-1.3,1.3-2.2,1.7c-0.9,0.4-1.9,0.6-3,0.6c-1.3,0-2.4-0.2-3.4-0.7c-0.9-0.5-1.7-1.1-2.2-2
	c-0.5-0.8-0.8-1.8-0.8-3c0-1.9,0.7-3.3,2-4.3c1.3-1,3.4-1.6,6.2-1.8l3.2-0.3V231c0-0.9-0.1-1.6-0.4-2.1c-0.3-0.5-0.8-0.9-1.4-1.1
	c-0.6-0.2-1.5-0.3-2.6-0.3c-0.8,0-1.7,0.1-2.6,0.2c-0.9,0.1-1.8,0.3-2.7,0.6V224c0.9-0.3,2-0.5,3.1-0.6c1.1-0.1,2.2-0.2,3.2-0.2
	C178.3,223.2,180,223.4,181.3,224 M205.6,231.3h7l-3.5-11.3L205.6,231.3z M216.1,243l-2.2-7h-9.8l-2.2,7h-5.7l8.5-26.4h8.5l8.5,26.4
	H216.1z M224.2,223.5h4.7l0.4,2.5h0.3c0.5-0.9,1.3-1.6,2.1-2.1c0.9-0.5,1.9-0.7,3-0.7c0.6,0,1.1,0,1.6,0.1v5.2
	c-0.5-0.1-1.2-0.2-1.9-0.2c-0.9,0-1.7,0.2-2.6,0.5c-0.8,0.3-1.5,0.8-1.9,1.4V243h-5.7V223.5z M249.1,238.2c0.6-0.2,1-0.5,1.4-0.9
	v-9.6c-0.7-0.2-1.5-0.2-2.3-0.2c-1.6,0-2.8,0.4-3.6,1.3c-0.8,0.9-1.2,2.3-1.2,4.3c0,2,0.3,3.3,1,4.1c0.7,0.8,1.7,1.2,3,1.2
	C247.9,238.5,248.5,238.4,249.1,238.2 M238.9,250.4v-4.5c2.1,0.6,4.1,0.9,6.1,0.9c1.3,0,2.3-0.2,3.1-0.5c0.8-0.3,1.4-0.8,1.8-1.5
	c0.4-0.7,0.6-1.6,0.6-2.7v-1.3h-0.3c-0.6,0.7-1.3,1.2-2.2,1.6c-0.9,0.4-1.8,0.6-2.9,0.6c-1.4,0-2.7-0.3-3.8-1
	c-1.1-0.7-2.1-1.7-2.7-3.2c-0.7-1.4-1-3.2-1-5.3c0-3.4,0.9-6,2.8-7.8c1.9-1.8,4.6-2.7,8.3-2.7c1.3,0,2.6,0.1,3.9,0.3
	c1.3,0.2,2.5,0.4,3.6,0.8v16.9c0,2.3-0.4,4.3-1.2,5.7c-0.8,1.5-2,2.6-3.5,3.3c-1.6,0.7-3.6,1-6,1
	C243.1,251.2,240.9,250.9,238.9,250.4 M266.1,227.9c-0.5,0.7-0.8,2-0.9,3.7h6.5c0-1.7-0.3-3-0.8-3.7c-0.5-0.7-1.3-1.1-2.4-1.1
	C267.5,226.8,266.7,227.2,266.1,227.9 M277.1,234.9h-11.8c0.1,1,0.3,1.9,0.7,2.5c0.4,0.6,1,1,1.8,1.3c0.8,0.3,1.9,0.4,3.4,0.4
	c1.5,0,3.1-0.2,4.9-0.6v4.3c-1.9,0.4-3.8,0.7-5.7,0.7c-2.5,0-4.5-0.4-6.1-1.1c-1.6-0.7-2.7-1.8-3.5-3.3c-0.8-1.5-1.1-3.4-1.1-5.8
	c0-2.1,0.4-4,1.1-5.5c0.7-1.5,1.7-2.6,3.1-3.4c1.4-0.8,3-1.2,4.9-1.2c2.8,0,4.9,0.9,6.3,2.6c1.4,1.7,2.2,4.3,2.2,7.6V234.9z
	 M280.2,223.5h4.7l0.4,2h0.3c0.7-0.7,1.6-1.3,2.5-1.7c1-0.4,2-0.6,3.2-0.6c2.1,0,3.7,0.6,4.9,1.9c1.2,1.2,1.8,3.2,1.8,5.8V243h-5.7
	v-11.8c0-1.1-0.2-1.9-0.7-2.4c-0.5-0.5-1.1-0.7-2.1-0.7c-0.7,0-1.3,0.1-2,0.4c-0.6,0.3-1.2,0.7-1.6,1.2V243h-5.7V223.5z
	 M314.3,238.4v4.5c-1.2,0.3-2.4,0.4-3.6,0.4c-2.4,0-4.2-0.6-5.5-1.8c-1.2-1.2-1.9-3-1.9-5.5V228h-3.2v-4.5h3.2l1-6.9h4.7v6.9h5.1
	v4.5h-5.1v7.2c0,0.9,0.1,1.6,0.3,2.1c0.2,0.5,0.6,0.9,1,1.1c0.5,0.2,1.1,0.3,1.8,0.3C312.8,238.7,313.5,238.6,314.3,238.4
	 M317.3,223.5h5.7V243h-5.7V223.5z M317.5,219.9c-0.6-0.5-0.9-1.2-0.9-2.2c0-1,0.3-1.7,0.9-2.2c0.6-0.5,1.5-0.8,2.7-0.8
	c1.2,0,2.1,0.3,2.6,0.8c0.6,0.5,0.9,1.3,0.9,2.2c0,0.9-0.3,1.7-0.9,2.2c-0.6,0.5-1.5,0.8-2.6,0.8C318.9,220.6,318,220.4,317.5,219.9
	 M327.2,223.5h4.7l0.4,2h0.3c0.7-0.7,1.6-1.3,2.5-1.7c1-0.4,2-0.6,3.2-0.6c2.1,0,3.7,0.6,4.9,1.9c1.2,1.2,1.8,3.2,1.8,5.8V243h-5.7
	v-11.8c0-1.1-0.2-1.9-0.7-2.4c-0.5-0.5-1.1-0.7-2.1-0.7c-0.7,0-1.3,0.1-2,0.4c-0.6,0.3-1.2,0.7-1.6,1.2V243h-5.7V223.5z
	 M357.9,239.1c0.5-0.2,1-0.5,1.4-0.9v-3.7l-2.6,0.2c-1.1,0.1-1.8,0.3-2.3,0.7s-0.7,1-0.7,1.7c0,0.7,0.2,1.3,0.7,1.7
	c0.4,0.4,1.1,0.6,1.9,0.6C356.8,239.4,357.3,239.3,357.9,239.1 M361.1,224c1.3,0.5,2.3,1.4,2.9,2.6c0.6,1.2,0.9,2.8,0.9,4.9V243
	h-4.7l-0.4-1.9h-0.3c-0.6,0.8-1.3,1.3-2.2,1.7c-0.9,0.4-1.9,0.6-3,0.6c-1.3,0-2.4-0.2-3.4-0.7c-0.9-0.5-1.7-1.1-2.2-2
	c-0.5-0.8-0.8-1.8-0.8-3c0-1.9,0.6-3.3,2-4.3c1.3-1,3.4-1.6,6.2-1.8l3.2-0.3V231c0-0.9-0.1-1.6-0.4-2.1c-0.3-0.5-0.8-0.9-1.4-1.1
	c-0.6-0.2-1.5-0.3-2.6-0.3c-0.8,0-1.7,0.1-2.6,0.2c-0.9,0.1-1.8,0.3-2.7,0.6V224c0.9-0.3,2-0.5,3.1-0.6c1.1-0.1,2.2-0.2,3.2-0.2
	C358,223.2,359.7,223.4,361.1,224 M62.9,281.2c0.6-0.2,1-0.6,1.4-1v-9.7c-0.7-0.1-1.4-0.2-2.2-0.2c-1.7,0-2.9,0.4-3.7,1.3
	c-0.8,0.9-1.2,2.4-1.2,4.4c0,2,0.3,3.4,1,4.2c0.7,0.8,1.7,1.2,2.9,1.2C61.8,281.5,62.4,281.4,62.9,281.2 M55.4,285.1
	c-1.2-0.7-2.2-1.7-2.9-3.2c-0.7-1.4-1.1-3.3-1.1-5.5c0-3.4,0.9-6,2.7-7.8c1.8-1.8,4.5-2.7,7.9-2.7c0.8,0,1.6,0,2.3,0.1V257h5.7v28.8
	h-4.8l-0.4-2h-0.3c-0.6,0.7-1.3,1.3-2.2,1.7c-0.9,0.4-1.9,0.6-3,0.6C58,286.2,56.6,285.8,55.4,285.1 M80,270.7
	c-0.5,0.7-0.8,2-0.9,3.7h6.5c0-1.7-0.3-3-0.8-3.7c-0.5-0.7-1.3-1.1-2.4-1.1C81.4,269.6,80.5,270,80,270.7 M91,277.7H79.1
	c0.1,1,0.3,1.9,0.7,2.5c0.4,0.6,1,1,1.8,1.3c0.8,0.3,1.9,0.4,3.4,0.4c1.5,0,3.1-0.2,4.9-0.6v4.3c-1.9,0.4-3.8,0.7-5.7,0.7
	c-2.5,0-4.5-0.4-6.1-1.1c-1.6-0.7-2.7-1.8-3.5-3.3c-0.8-1.5-1.1-3.4-1.1-5.8c0-2.1,0.4-4,1.1-5.5s1.7-2.6,3.1-3.4
	c1.4-0.8,3-1.2,4.9-1.2c2.8,0,4.9,0.9,6.3,2.6c1.4,1.7,2.2,4.3,2.2,7.6V277.7z M103.3,259.4h5.8v26.4h-5.8V259.4z M113.7,266.3h4.7
	l0.4,2h0.3c0.7-0.7,1.6-1.3,2.5-1.7s2-0.6,3.2-0.6c2.1,0,3.7,0.6,4.9,1.9c1.2,1.2,1.8,3.2,1.8,5.8v12.2h-5.7V274
	c0-1.1-0.2-1.9-0.7-2.4c-0.5-0.5-1.1-0.7-2.1-0.7c-0.7,0-1.3,0.1-2,0.4c-0.6,0.3-1.2,0.7-1.6,1.2v13.3h-5.7V266.3z M148.6,266.3h5.6
	l-6.9,19.5h-7.1l-6.8-19.5h6l4.6,14.3L148.6,266.3z M161.7,270.7c-0.5,0.7-0.8,2-0.9,3.7h6.5c0-1.7-0.3-3-0.8-3.7
	c-0.5-0.7-1.3-1.1-2.4-1.1C163,269.6,162.2,270,161.7,270.7 M172.6,277.7h-11.8c0.1,1,0.3,1.9,0.7,2.5c0.4,0.6,1,1,1.8,1.3
	c0.8,0.3,1.9,0.4,3.4,0.4c1.5,0,3.1-0.2,4.9-0.6v4.3c-1.9,0.4-3.8,0.7-5.7,0.7c-2.5,0-4.5-0.4-6.1-1.1c-1.6-0.7-2.7-1.8-3.5-3.3
	c-0.8-1.5-1.1-3.4-1.1-5.8c0-2.1,0.4-4,1.1-5.5c0.7-1.5,1.7-2.6,3.1-3.4c1.4-0.8,3-1.2,4.9-1.2c2.8,0,4.9,0.9,6.3,2.6
	c1.4,1.7,2.2,4.3,2.2,7.6V277.7z M175.8,266.3h4.7l0.4,2.5h0.3c0.5-0.9,1.2-1.6,2.1-2.1s1.9-0.7,3-0.7c0.6,0,1.1,0,1.6,0.1v5.2
	c-0.5-0.1-1.2-0.2-1.9-0.2c-0.9,0-1.7,0.2-2.6,0.5c-0.8,0.3-1.5,0.8-1.9,1.4v12.8h-5.7V266.3z M189.6,285.3v-4.2
	c1.9,0.6,4,0.9,6.2,0.9c1.2,0,2.1-0.2,2.7-0.5c0.6-0.3,0.8-0.8,0.8-1.4c0-0.5-0.1-0.9-0.4-1.1c-0.3-0.2-0.7-0.4-1.4-0.6l-3.2-0.6
	c-1.8-0.3-3.2-1-4-1.9c-0.8-0.9-1.3-2.2-1.3-3.7c0-1.3,0.3-2.4,1-3.3c0.7-0.9,1.7-1.7,3.1-2.2c1.4-0.5,3.1-0.8,5.1-0.8
	c0.9,0,1.8,0.1,2.8,0.2c0.9,0.1,1.7,0.3,2.5,0.4v4.2c-1.6-0.4-3.3-0.6-5.1-0.6c-2.7,0-4.1,0.7-4.1,2c0,0.4,0.1,0.8,0.4,1
	c0.3,0.3,0.7,0.4,1.3,0.6l3.2,0.6c1.8,0.3,3.1,1,4,1.8c0.9,0.9,1.3,2.1,1.3,3.8c0,1.3-0.3,2.4-1,3.4c-0.7,0.9-1.7,1.7-3,2.2
	c-1.3,0.5-2.9,0.8-4.7,0.8C193.6,286.2,191.5,285.9,189.6,285.3 M207.6,266.3h5.7v19.5h-5.7V266.3z M207.8,262.7
	c-0.6-0.5-0.9-1.2-0.9-2.2c0-1,0.3-1.7,0.9-2.2c0.6-0.5,1.5-0.8,2.7-0.8c1.2,0,2.1,0.3,2.6,0.8c0.6,0.5,0.9,1.3,0.9,2.2
	c0,1-0.3,1.7-0.9,2.2c-0.6,0.5-1.5,0.8-2.6,0.8C209.3,263.5,208.4,263.2,207.8,262.7 M228.3,281.3c0.5-0.4,1-1,1.3-1.8
	c0.3-0.8,0.4-2,0.4-3.4c0-1.5-0.1-2.6-0.4-3.5c-0.3-0.9-0.7-1.5-1.3-1.8s-1.2-0.5-2.1-0.5c-0.8,0-1.5,0.2-2.1,0.5
	c-0.6,0.4-1,1-1.3,1.8c-0.3,0.8-0.4,2-0.4,3.4c0,1.5,0.1,2.6,0.4,3.4c0.3,0.9,0.7,1.5,1.3,1.8c0.5,0.4,1.2,0.5,2.1,0.5
	S227.8,281.7,228.3,281.3 M221.1,285.1c-1.4-0.7-2.5-1.9-3.3-3.4c-0.8-1.5-1.1-3.4-1.1-5.6c0-3.4,0.8-5.9,2.5-7.6
	c1.7-1.7,4-2.5,7.1-2.5c3,0,5.4,0.8,7,2.5c1.7,1.7,2.5,4.2,2.5,7.5c0,2.2-0.4,4.1-1.1,5.6c-0.8,1.5-1.9,2.6-3.3,3.4
	c-1.4,0.8-3.1,1.1-5.1,1.1C224.2,286.2,222.6,285.8,221.1,285.1 M239.1,266.3h4.7l0.4,2h0.3c0.7-0.7,1.6-1.3,2.5-1.7
	c1-0.4,2-0.6,3.2-0.6c2.1,0,3.7,0.6,4.9,1.9c1.2,1.2,1.8,3.2,1.8,5.8v12.2h-5.7V274c0-1.1-0.2-1.9-0.7-2.4c-0.5-0.5-1.1-0.7-2.1-0.7
	c-0.7,0-1.3,0.1-2,0.4c-0.6,0.3-1.2,0.7-1.6,1.2v13.3h-5.7V266.3z M266.6,270.7c-0.5,0.7-0.8,2-0.9,3.7h6.5c0-1.7-0.3-3-0.8-3.7
	c-0.5-0.7-1.3-1.1-2.4-1.1C268,269.6,267.1,270,266.6,270.7 M277.6,277.7h-11.8c0.1,1,0.3,1.9,0.7,2.5c0.4,0.6,1,1,1.8,1.3
	c0.8,0.3,1.9,0.4,3.4,0.4c1.5,0,3.1-0.2,4.9-0.6v4.3c-1.9,0.4-3.8,0.7-5.7,0.7c-2.5,0-4.5-0.4-6.1-1.1c-1.6-0.7-2.7-1.8-3.5-3.3
	c-0.8-1.5-1.1-3.4-1.1-5.8c0-2.1,0.4-4,1.1-5.5c0.7-1.5,1.7-2.6,3.1-3.4c1.4-0.8,3-1.2,4.9-1.2c2.8,0,4.9,0.9,6.3,2.6
	c1.4,1.7,2.2,4.3,2.2,7.6V277.7z M280.2,285.3v-4.2c1.9,0.6,4,0.9,6.2,0.9c1.2,0,2.1-0.2,2.7-0.5c0.6-0.3,0.8-0.8,0.8-1.4
	c0-0.5-0.1-0.9-0.4-1.1c-0.3-0.2-0.7-0.4-1.4-0.6l-3.2-0.6c-1.8-0.3-3.2-1-4-1.9c-0.8-0.9-1.3-2.2-1.3-3.7c0-1.3,0.3-2.4,1-3.3
	c0.7-0.9,1.7-1.7,3.1-2.2c1.4-0.5,3.1-0.8,5.1-0.8c0.9,0,1.8,0.1,2.8,0.2c0.9,0.1,1.7,0.3,2.5,0.4v4.2c-1.6-0.4-3.3-0.6-5.1-0.6
	c-2.7,0-4.1,0.7-4.1,2c0,0.4,0.1,0.8,0.4,1c0.3,0.3,0.7,0.4,1.3,0.6l3.2,0.6c1.8,0.3,3.1,1,4,1.8c0.9,0.9,1.3,2.1,1.3,3.8
	c0,1.3-0.3,2.4-1,3.4c-0.7,0.9-1.7,1.7-3,2.2c-1.3,0.5-2.9,0.8-4.7,0.8C284.1,286.2,282.1,285.9,280.2,285.3 M65.5,309.1h5.6
	l-9.7,27.4h-5.6l2.8-7.9h-1.6l-6.8-19.5h6l4.6,14.5L65.5,309.1z M85,325.7c-2.3-2.2-3.5-5.6-3.5-10.2c0-4.5,1.2-7.9,3.6-10.2
	c2.4-2.3,5.9-3.4,10.5-3.4c2,0,3.9,0.2,5.7,0.6v4.8c-1.7-0.4-3.5-0.6-5.2-0.6c-1.9,0-3.5,0.3-4.7,0.9c-1.2,0.6-2.2,1.5-2.8,2.8
	c-0.6,1.3-0.9,3-0.9,5c0,2.1,0.3,3.8,0.9,5.1c0.6,1.3,1.5,2.2,2.7,2.8c1.2,0.6,2.7,0.9,4.6,0.9c1.7,0,3.5-0.3,5.4-0.8v4.8
	c-0.9,0.3-1.8,0.5-2.8,0.6c-1,0.1-2.1,0.2-3.1,0.2C90.8,329,87.4,327.9,85,325.7 M114.2,324.1c0.5-0.4,1-1,1.3-1.8
	c0.3-0.8,0.4-2,0.4-3.4c0-1.5-0.1-2.6-0.4-3.5c-0.3-0.9-0.7-1.5-1.3-1.8c-0.6-0.4-1.2-0.5-2.1-0.5c-0.8,0-1.5,0.2-2.1,0.5
	c-0.5,0.4-1,1-1.3,1.8c-0.3,0.8-0.4,2-0.4,3.4c0,1.4,0.1,2.6,0.4,3.4c0.3,0.9,0.7,1.5,1.3,1.8c0.5,0.4,1.2,0.5,2.1,0.5
	C113,324.7,113.7,324.5,114.2,324.1 M107.1,327.9c-1.4-0.8-2.5-1.9-3.3-3.4c-0.8-1.5-1.1-3.4-1.1-5.6c0-3.4,0.8-5.9,2.5-7.6
	c1.7-1.7,4-2.5,7-2.5c3,0,5.4,0.9,7,2.6c1.7,1.7,2.5,4.2,2.5,7.5c0,2.2-0.4,4.1-1.1,5.6c-0.8,1.5-1.9,2.6-3.3,3.4
	c-1.4,0.7-3.1,1.1-5.1,1.1C110.2,329,108.5,328.6,107.1,327.9 M151.4,310.7c1.2,1.2,1.7,3.2,1.7,5.8v12.1h-5.7v-11.8
	c0-1.1-0.2-1.9-0.7-2.4c-0.4-0.5-1.1-0.7-1.9-0.7c-0.6,0-1.1,0.1-1.7,0.3c-0.5,0.2-1,0.6-1.4,1c0,0.4,0.1,0.8,0.1,1.3v12.3h-5.6
	v-11.8c0-1.1-0.2-1.9-0.6-2.4c-0.4-0.5-1-0.7-1.8-0.7c-0.6,0-1.2,0.1-1.8,0.4c-0.6,0.3-1,0.7-1.4,1.2v13.3H125v-19.5h4.7l0.4,2h0.3
	c1.4-1.5,3.2-2.3,5.5-2.3c1.1,0,2.1,0.2,2.9,0.6c0.9,0.4,1.5,1.1,2.1,1.9c0.8-0.9,1.7-1.5,2.7-1.9c1-0.4,2.1-0.6,3.1-0.6
	C148.7,308.8,150.3,309.4,151.4,310.7 M162.9,313.5c-0.5,0.7-0.8,2-0.9,3.7h6.5c0-1.7-0.3-3-0.8-3.7c-0.5-0.7-1.3-1.1-2.4-1.1
	C164.3,312.4,163.5,312.8,162.9,313.5 M173.9,320.5h-11.8c0.1,1,0.3,1.9,0.7,2.5c0.4,0.6,1,1,1.8,1.3c0.8,0.3,1.9,0.4,3.4,0.4
	c1.5,0,3.1-0.2,4.9-0.6v4.3c-1.9,0.4-3.8,0.7-5.7,0.7c-2.5,0-4.5-0.4-6.1-1.1c-1.6-0.7-2.7-1.8-3.5-3.3c-0.8-1.5-1.1-3.4-1.1-5.8
	c0-2.1,0.4-4,1.1-5.5c0.7-1.5,1.7-2.6,3.1-3.4c1.4-0.8,3-1.2,4.9-1.2c2.8,0,4.9,0.9,6.3,2.6c1.4,1.7,2.2,4.3,2.2,7.6V320.5z
	 M177.1,309.1h4.7l0.4,2.5h0.3c0.5-0.9,1.3-1.6,2.1-2.1c0.9-0.5,1.9-0.7,3-0.7c0.6,0,1.1,0,1.6,0.1v5.2c-0.5-0.1-1.2-0.2-1.9-0.2
	c-0.9,0-1.7,0.2-2.6,0.5c-0.8,0.3-1.5,0.8-1.9,1.4v12.8h-5.7V309.1z M193,326.5c-1.7-1.7-2.6-4.2-2.6-7.6c0-3.4,0.9-5.9,2.8-7.6
	c1.8-1.7,4.5-2.5,8-2.5c1.6,0,3.1,0.1,4.4,0.4v4.5c-1.3-0.3-2.4-0.4-3.6-0.4c-1.3,0-2.4,0.2-3.2,0.6c-0.8,0.4-1.4,1-1.8,1.8
	c-0.4,0.8-0.6,1.9-0.6,3.2c0,2,0.4,3.4,1.3,4.2c0.8,0.9,2.1,1.3,3.9,1.3c0.6,0,1.2-0.1,1.9-0.2c0.6-0.1,1.4-0.3,2.2-0.5v4.5
	c-1.5,0.5-3.2,0.7-5,0.7C197.2,329,194.7,328.2,193,326.5 M208.8,309.1h5.7v19.5h-5.7V309.1z M209,305.5c-0.6-0.5-0.9-1.2-0.9-2.2
	c0-1,0.3-1.7,0.9-2.2c0.6-0.5,1.5-0.8,2.7-0.8c1.2,0,2.1,0.3,2.6,0.8c0.6,0.5,0.9,1.3,0.9,2.2c0,1-0.3,1.7-0.9,2.2
	c-0.6,0.5-1.5,0.8-2.6,0.8C210.5,306.3,209.6,306,209,305.5 M229.4,324.1c0.5-0.4,1-1,1.3-1.8c0.3-0.8,0.4-2,0.4-3.4
	c0-1.5-0.1-2.6-0.4-3.5c-0.3-0.9-0.7-1.5-1.3-1.8c-0.6-0.4-1.3-0.5-2.1-0.5s-1.5,0.2-2.1,0.5c-0.5,0.4-1,1-1.3,1.8
	c-0.3,0.8-0.4,2-0.4,3.4c0,1.4,0.1,2.6,0.4,3.4c0.3,0.9,0.7,1.5,1.3,1.8c0.5,0.4,1.2,0.5,2.1,0.5
	C228.2,324.7,228.9,324.5,229.4,324.1 M222.3,327.9c-1.4-0.8-2.5-1.9-3.3-3.4c-0.8-1.5-1.2-3.4-1.2-5.6c0-3.4,0.8-5.9,2.5-7.6
	c1.7-1.7,4-2.5,7.1-2.5c3,0,5.4,0.9,7,2.6c1.7,1.7,2.5,4.2,2.5,7.5c0,2.2-0.4,4.1-1.2,5.6c-0.8,1.5-1.9,2.6-3.3,3.4
	c-1.4,0.7-3.1,1.1-5.1,1.1C225.4,329,223.7,328.6,222.3,327.9 M249.2,309.1h5.7v19.5h-5.7V309.1z M249.4,305.5
	c-0.6-0.5-0.9-1.2-0.9-2.2c0-1,0.3-1.7,0.9-2.2c0.6-0.5,1.5-0.8,2.7-0.8c1.2,0,2.1,0.3,2.6,0.8c0.6,0.5,0.9,1.3,0.9,2.2
	c0,1-0.3,1.7-0.9,2.2c-0.6,0.5-1.5,0.8-2.6,0.8C250.9,306.3,250,306,249.4,305.5 M259.2,309.1h4.7l0.4,2h0.3
	c0.7-0.7,1.6-1.3,2.5-1.7c1-0.4,2-0.6,3.2-0.6c2.1,0,3.7,0.6,4.9,1.9c1.2,1.2,1.8,3.2,1.8,5.8v12.1h-5.7v-11.8
	c0-1.1-0.2-1.9-0.7-2.4c-0.5-0.5-1.1-0.7-2.1-0.7c-0.7,0-1.3,0.1-2,0.4c-0.6,0.3-1.2,0.7-1.6,1.2v13.3h-5.7V309.1z M293.3,324.1v4.5
	c-1.2,0.3-2.4,0.4-3.6,0.4c-2.4,0-4.2-0.6-5.5-1.8c-1.2-1.2-1.9-3-1.9-5.5v-8.1h-3.2v-4.5h3.2l1-6.9h4.7v6.9h5.1v4.5h-5.1v7.2
	c0,0.9,0.1,1.6,0.3,2.1c0.2,0.5,0.6,0.9,1,1.1c0.5,0.2,1.1,0.3,1.8,0.3C291.7,324.3,292.4,324.2,293.3,324.1 M301.5,313.5
	c-0.5,0.7-0.8,2-0.9,3.7h6.5c0-1.7-0.3-3-0.8-3.7c-0.5-0.7-1.3-1.1-2.4-1.1C302.8,312.4,302,312.8,301.5,313.5 M312.5,320.5h-11.8
	c0.1,1,0.3,1.9,0.7,2.5c0.4,0.6,1,1,1.8,1.3c0.8,0.3,1.9,0.4,3.4,0.4c1.5,0,3.1-0.2,4.9-0.6v4.3c-1.9,0.4-3.8,0.7-5.7,0.7
	c-2.5,0-4.5-0.4-6.1-1.1c-1.6-0.7-2.7-1.8-3.5-3.3c-0.8-1.5-1.1-3.4-1.1-5.8c0-2.1,0.4-4,1.1-5.5c0.7-1.5,1.7-2.6,3.1-3.4
	c1.4-0.8,3-1.2,4.9-1.2c2.8,0,4.9,0.9,6.3,2.6c1.4,1.7,2.2,4.3,2.2,7.6V320.5z M315.6,309.1h4.7l0.4,2.5h0.3
	c0.5-0.9,1.3-1.6,2.1-2.1c0.9-0.5,1.9-0.7,3-0.7c0.6,0,1.1,0,1.6,0.1v5.2c-0.5-0.1-1.2-0.2-1.9-0.2c-0.9,0-1.7,0.2-2.6,0.5
	c-0.8,0.3-1.5,0.8-1.9,1.4v12.8h-5.7V309.1z M330,309.1h4.7l0.4,2h0.3c0.7-0.7,1.6-1.3,2.5-1.7c1-0.4,2-0.6,3.2-0.6
	c2.1,0,3.7,0.6,4.9,1.9c1.2,1.2,1.8,3.2,1.8,5.8v12.1h-5.7v-11.8c0-1.1-0.2-1.9-0.7-2.4c-0.5-0.5-1.1-0.7-2.1-0.7
	c-0.7,0-1.3,0.1-2,0.4c-0.6,0.3-1.2,0.7-1.6,1.2v13.3H330V309.1z M360.7,324.7c0.5-0.2,1-0.5,1.4-0.9v-3.7l-2.6,0.2
	c-1.1,0.1-1.8,0.3-2.3,0.7c-0.5,0.4-0.7,1-0.7,1.7c0,0.7,0.2,1.3,0.7,1.7c0.4,0.4,1.1,0.6,1.9,0.6
	C359.6,325,360.2,324.9,360.7,324.7 M363.9,309.6c1.3,0.5,2.3,1.4,2.9,2.6c0.6,1.2,0.9,2.8,0.9,4.9v11.6H363l-0.4-1.9h-0.3
	c-0.6,0.8-1.3,1.3-2.2,1.7c-0.9,0.4-1.9,0.6-3,0.6c-1.3,0-2.4-0.2-3.4-0.7c-0.9-0.5-1.7-1.1-2.2-2c-0.5-0.8-0.8-1.8-0.8-3
	c0-1.9,0.6-3.3,2-4.3c1.3-1,3.4-1.6,6.2-1.8l3.2-0.3v-0.3c0-0.9-0.1-1.6-0.4-2.1c-0.3-0.5-0.8-0.9-1.4-1.1c-0.6-0.2-1.5-0.3-2.6-0.3
	c-0.8,0-1.7,0.1-2.6,0.2c-0.9,0.1-1.8,0.3-2.7,0.6v-4.3c0.9-0.3,2-0.5,3.1-0.6c1.1-0.1,2.2-0.2,3.2-0.2
	C360.9,308.8,362.6,309.1,363.9,309.6 M373.5,326.5c-1.7-1.7-2.6-4.2-2.6-7.6c0-3.4,0.9-5.9,2.8-7.6c1.8-1.7,4.5-2.5,8-2.5
	c1.6,0,3.1,0.1,4.4,0.4v4.5c-1.3-0.3-2.4-0.4-3.6-0.4c-1.3,0-2.4,0.2-3.2,0.6c-0.8,0.4-1.4,1-1.8,1.8c-0.4,0.8-0.6,1.9-0.6,3.2
	c0,2,0.4,3.4,1.3,4.2c0.8,0.9,2.1,1.3,3.9,1.3c0.6,0,1.2-0.1,1.9-0.2c0.6-0.1,1.4-0.3,2.2-0.5v4.5c-1.5,0.5-3.2,0.7-5,0.7
	C377.8,329,375.3,328.2,373.5,326.5 M389.3,309.1h5.7v19.5h-5.7V309.1z M389.5,305.5c-0.6-0.5-0.9-1.2-0.9-2.2c0-1,0.3-1.7,0.9-2.2
	c0.6-0.5,1.5-0.8,2.7-0.8c1.2,0,2.1,0.3,2.6,0.8c0.6,0.5,0.9,1.3,0.9,2.2c0,1-0.3,1.7-0.9,2.2c-0.6,0.5-1.5,0.8-2.6,0.8
	C391,306.3,390.1,306,389.5,305.5 M410,324.1c0.5-0.4,1-1,1.3-1.8s0.4-2,0.4-3.4c0-1.5-0.1-2.6-0.4-3.5c-0.3-0.9-0.7-1.5-1.3-1.8
	c-0.6-0.4-1.2-0.5-2.1-0.5c-0.8,0-1.5,0.2-2.1,0.5c-0.5,0.4-1,1-1.3,1.8c-0.3,0.8-0.4,2-0.4,3.4c0,1.4,0.1,2.6,0.4,3.4
	c0.3,0.9,0.7,1.5,1.3,1.8c0.5,0.4,1.2,0.5,2.1,0.5S409.4,324.5,410,324.1 M402.8,327.9c-1.4-0.8-2.5-1.9-3.3-3.4
	c-0.8-1.5-1.2-3.4-1.2-5.6c0-3.4,0.8-5.9,2.5-7.6c1.7-1.7,4-2.5,7-2.5c3,0,5.4,0.9,7,2.6c1.7,1.7,2.5,4.2,2.5,7.5
	c0,2.2-0.4,4.1-1.2,5.6c-0.8,1.5-1.9,2.6-3.3,3.4c-1.4,0.7-3.1,1.1-5.1,1.1C405.9,329,404.2,328.6,402.8,327.9 M420.8,309.1h4.7
	l0.4,2h0.3c0.7-0.7,1.6-1.3,2.5-1.7c1-0.4,2-0.6,3.2-0.6c2.1,0,3.7,0.6,4.9,1.9c1.2,1.2,1.8,3.2,1.8,5.8v12.1h-5.7v-11.8
	c0-1.1-0.2-1.9-0.7-2.4c-0.5-0.5-1.1-0.7-2.1-0.7c-0.7,0-1.3,0.1-2,0.4c-0.6,0.3-1.2,0.7-1.6,1.2v13.3h-5.7V309.1z M451.4,324.7
	c0.5-0.2,1-0.5,1.4-0.9v-3.7l-2.6,0.2c-1.1,0.1-1.8,0.3-2.3,0.7c-0.5,0.4-0.7,1-0.7,1.7c0,0.7,0.2,1.3,0.7,1.7
	c0.4,0.4,1.1,0.6,1.9,0.6C450.4,325,450.9,324.9,451.4,324.7 M454.6,309.6c1.3,0.5,2.3,1.4,2.9,2.6c0.6,1.2,0.9,2.8,0.9,4.9v11.6
	h-4.7l-0.4-1.9h-0.3c-0.6,0.8-1.3,1.3-2.2,1.7c-0.9,0.4-1.9,0.6-3,0.6c-1.3,0-2.4-0.2-3.4-0.7c-0.9-0.5-1.7-1.1-2.2-2
	c-0.5-0.8-0.8-1.8-0.8-3c0-1.9,0.7-3.3,2-4.3c1.3-1,3.4-1.6,6.2-1.8l3.2-0.3v-0.3c0-0.9-0.1-1.6-0.4-2.1c-0.3-0.5-0.8-0.9-1.4-1.1
	c-0.6-0.2-1.5-0.3-2.6-0.3c-0.8,0-1.7,0.1-2.6,0.2c-0.9,0.1-1.8,0.3-2.7,0.6v-4.3c0.9-0.3,2-0.5,3.1-0.6c1.1-0.1,2.2-0.2,3.2-0.2
	C451.6,308.8,453.3,309.1,454.6,309.6 M462.6,299.8h5.7v28.8h-5.7V299.8z"/>
</svg>
