<?xml version="1.0"?>
<svg width="1344" height="816" xmlns="http://www.w3.org/2000/svg" xmlns:svg="http://www.w3.org/2000/svg" version="1.1" xml:space="preserve">
 <metadata id="metadata8">image/svg+xml</metadata>
 <defs id="defs6">
  <clipPath clipPathUnits="userSpaceOnUse" id="clipPath18">
   <path d="m0,612l1008,0l0,-612l-1008,0l0,612z" id="path16"/>
  </clipPath>
 </defs>
 <g class="layer">
  <title>Layer 1</title>
  <g id="g20" transform="matrix(1.33333 0 0 -1.33333 0 816)">
   <path d="m345.87,344.64c2.65,0 3.68,1.03 3.69,3.63c0,6.41 0.01,12.82 0,19.22c-0.01,2.49 -1.06,3.56 -3.58,3.56c-10.68,0 -20.8,0 -32.04,0c-12.73,0 -22.75,-10.36 -22.75,-22.33c0,-3.04 0.87,-4.08 3.96,-4.08c8.42,-0.01 42.24,-0.01 50.72,0m-50.67,-5.57c-3.07,-0.01 -4.01,-0.97 -4.01,-4.07l0,-18.86c0.01,-2.46 0.99,-3.46 3.41,-3.46l32.41,0c11.94,0.12 22.53,10.29 22.53,22.11c0.1,3.26 -0.89,4.28 -4.17,4.28c-8.3,0 -41.75,0.01 -50.17,0" fill="#00bfbf" fill-rule="nonzero" id="path22"/>
  </g>
  <g id="g24" transform="matrix(1.33333 0 0 -1.33333 0 816)">
   <path d="m500.83,370.18c-2.01,-0.71 -3.35,-2.53 -3.36,-4.75c-0.01,-15.94 -0.02,-31.87 0.03,-47.81c0.01,-0.97 0.38,-2.06 0.91,-2.88c1.24,-1.9 3.7,-2.58 5.86,-1.84c1.94,0.67 3.17,2.58 3.17,5.07c0.01,11.97 0.04,23.93 -0.03,35.9c-0.01,2.04 0.74,3.33 2.26,4.71c2.01,1.81 4.57,2.31 7.45,2.31l14.65,0c3.93,0 5.98,-2.89 5.99,-6.92c0.04,-10.8 0.06,-21.61 0.09,-32.41c0.01,-1.47 -0.07,-2.94 0.05,-4.4c0.23,-2.7 2.49,-4.57 5.29,-4.48c2.6,0.08 4.56,2.01 4.57,4.73c0.03,12.57 0.16,25.15 -0.06,37.73c-0.16,9.02 -7.55,15.83 -16.56,15.83l-11.35,0c-4.6,0 -8.85,-0.48 -12.68,-3.35c-2.16,2.65 -3.99,3.36 -6.28,2.56m209.14,-33.05l-23.49,0c-4.21,0 -6.43,-3.45 -6.43,-6.97c0,-5.17 3.94,-7.51 7.83,-7.51c4.62,0 9.2,0.01 13.92,0.01c3.79,0 8.17,2.24 8.17,6.23l0,8.24zm0.07,10c0,2.95 0.12,5.63 -0.03,8.3c-0.16,2.71 -2.79,4.97 -5.84,5.02c-5.67,0.09 -11.35,0.04 -17.02,0.05c-1.59,0 -3.18,-0.03 -4.76,0.01c-3.03,0.09 -5.3,2.3 -5.21,5.01c0.1,2.85 2.26,4.88 5.3,4.89c7.38,0.01 14.77,0.05 22.16,-0.01c8.31,-0.07 15.19,-6.52 15.34,-14.83c0.21,-12.51 0.07,-25.02 0.05,-37.54c-0.01,-2.25 -0.95,-4.02 -3.18,-4.69c-2.23,-0.67 -4.42,0.1 -6.29,2.61c-0.87,-0.49 -1.75,-1.01 -2.65,-1.48c-2.36,-1.23 -4.84,-1.87 -7.55,-1.82c-4.63,0.09 -9.27,0.01 -13.91,0.03c-8.25,0.03 -15.08,6.21 -15.96,14.44c-0.37,3.36 -0.17,6.67 0.98,9.9c2.27,6.31 7.49,10.08 14.18,10.11c7.33,0.02 14.65,0 21.98,0l2.41,0zm-115.46,-10l-23.49,0c-4.21,0 -6.43,-3.45 -6.43,-6.97c0,-5.17 3.94,-7.51 7.84,-7.51c4.61,0 9.19,0.01 13.91,0.01c3.79,0 8.17,2.24 8.17,6.23l0,8.24zm0.07,10c0,2.95 0.12,5.63 -0.03,8.3c-0.16,2.71 -2.79,4.97 -5.83,5.02c-5.68,0.09 -11.35,0.04 -17.03,0.05c-1.59,0 -3.17,-0.03 -4.76,0.01c-3.03,0.09 -5.3,2.3 -5.21,5.01c0.1,2.85 2.26,4.88 5.3,4.89c7.39,0.01 14.77,0.05 22.16,-0.01c8.31,-0.07 15.2,-6.52 15.34,-14.83c0.21,-12.51 0.07,-25.02 0.05,-37.54c-0.01,-2.25 -0.95,-4.02 -3.18,-4.69c-2.23,-0.67 -4.41,0.1 -6.29,2.61c-0.87,-0.49 -1.74,-1.01 -2.65,-1.48c-2.36,-1.23 -4.84,-1.87 -7.54,-1.82c-4.64,0.09 -9.28,0.01 -13.92,0.03c-8.25,0.03 -15.08,6.21 -15.96,14.44c-0.36,3.36 -0.17,6.67 0.99,9.9c2.26,6.31 7.48,10.08 14.18,10.11c7.32,0.02 14.64,0 21.97,0l2.41,0zm50.92,-34.44c9.28,0 18.15,5.2 17.94,17.3c-0.15,8.49 -6.52,16.98 -17.14,16.98c-5.38,0 -10.87,-0.04 -16.31,0c-4.15,0.03 -6.64,2.73 -6.61,7.06c0.03,4.31 2.42,6.76 6.63,6.76c5.44,0.01 10.87,0.02 16.3,0c3.91,-0.01 6.12,-2.16 6.29,-6.06c0.13,-3.1 2.21,-5.28 4.97,-5.21c2.85,0.07 5.13,2.42 5.18,5.34c0.13,8.62 -6.77,15.91 -15.39,16.11l-16.66,0c-9.13,0 -16.54,-5.21 -17.24,-15.73c-0.78,-11.68 7.98,-18.44 16.59,-18.44c5.4,0 10.75,0.07 16.12,0.05c1.93,0 3.69,-0.38 5.24,-1.73c2.28,-2 2.35,-5.92 1.52,-8.36c-0.88,-2.6 -3.19,-3.96 -6.37,-3.97c-5.49,-0.02 -10.99,-0.02 -16.48,0c-4.41,0.01 -6.65,2.07 -7.07,6.41c-0.32,3.32 -2.08,4.98 -5.17,4.85c-2.71,-0.11 -4.68,-2.31 -4.74,-5.26c-0.13,-7.35 4.29,-16.1 15.22,-16.1l17.18,0zm-235.32,0c9.28,0 18.14,5.2 17.93,17.3c-0.14,8.49 -6.52,16.98 -17.14,16.98c-5.37,0 -10.86,-0.04 -16.3,0c-4.15,0.03 -6.64,2.73 -6.61,7.06c0.03,4.31 2.42,6.76 6.63,6.76c5.43,0.01 10.87,0.02 16.3,0c3.91,-0.01 6.12,-2.16 6.28,-6.06c0.14,-3.1 2.21,-5.28 4.97,-5.21c2.86,0.07 5.14,2.42 5.19,5.34c0.12,8.62 -6.78,15.91 -15.4,16.11l-16.66,0c-9.12,0 -16.53,-5.21 -17.23,-15.73c-0.78,-11.68 7.97,-18.44 16.59,-18.44c5.4,0 10.74,0.07 16.12,0.05c1.92,0 3.69,-0.38 5.23,-1.73c2.29,-2 2.36,-5.92 1.53,-8.36c-0.88,-2.6 -3.19,-3.96 -6.37,-3.97c-5.5,-0.02 -10.99,-0.02 -16.49,0c-4.4,0.01 -6.64,2.07 -7.06,6.41c-0.32,3.32 -2.09,4.98 -5.17,4.85c-2.71,-0.11 -4.69,-2.31 -4.74,-5.26c-0.13,-7.35 4.29,-16.1 15.22,-16.1l17.18,0zm67.26,34.2c0,2.72 0.04,5.18 0.04,7.83c0,3.29 -2.55,6.28 -5.99,6.3c-5.98,0.02 -11.96,0.07 -17.94,0c-3.06,-0.04 -6.05,-2.42 -6.05,-6.3l0,-7.83l29.94,0zm-29.93,-10.2c0,-3.02 -0.21,-5.77 0.05,-8.48c0.34,-3.44 2.91,-5.51 6.38,-5.51c7.93,-0.02 15.87,0 23.8,-0.01c2.06,-0.01 3.69,-0.87 4.63,-2.72c0.86,-1.69 0.76,-3.44 -0.29,-5.04c-0.92,-1.42 -2.24,-2.24 -3.97,-2.24c-8.54,-0.01 -17.09,-0.17 -25.63,0.04c-8.39,0.21 -15,7.16 -15.07,15.59c-0.07,9.28 -0.06,18.56 0,27.83c0.04,7.76 7.19,14.79 14.92,14.82c6.29,0.04 12.57,0.04 18.86,0c9.29,-0.04 16.4,-7.14 16.4,-16.43l0,-11.53c0,-4.65 -1.64,-6.32 -6.23,-6.32l-31.49,0l-2.36,0z" fill="#666666" fill-rule="nonzero" id="path26"/>
  </g>
  <g id="g28" transform="matrix(1.33333 0 0 -1.33333 0 816)">
   <path d="m602.16,258.95l4.55,0l-2.25,6.43l-2.3,-6.43zm-2.75,-3.88l4.48,12.17l1.09,0l4.47,-12.17l-1.38,0l-0.98,2.72l-5.32,0l-0.98,-2.72l-1.38,0zm-2.99,12.17l1.3,0l0,-12.17l-1.3,0l0,12.17zm-9.64,-5.63l3.25,0c0.72,0 1.3,0.19 1.75,0.55c0.45,0.37 0.68,0.93 0.68,1.68c0,0.76 -0.23,1.32 -0.68,1.69c-0.45,0.37 -1.03,0.55 -1.75,0.55l-3.25,0l0,-4.47zm-1.31,-6.55l0,12.18l4.68,0c0.52,0 1.01,-0.07 1.45,-0.23c0.45,-0.15 0.83,-0.37 1.15,-0.66c0.32,-0.3 0.57,-0.65 0.75,-1.07c0.17,-0.42 0.26,-0.89 0.26,-1.42c0,-0.89 -0.25,-1.63 -0.74,-2.19c-0.49,-0.57 -1.13,-0.93 -1.92,-1.09l2.89,-5.52l-1.52,0l-2.77,5.39l-2.92,0l0,-5.38l-1.31,-0.01zm-8.98,3.89l4.56,0l-2.26,6.43l-2.3,-6.43zm-2.75,-3.88l4.48,12.17l1.1,0l4.46,-12.17l-1.38,0l-0.98,2.72l-5.32,0l-0.98,-2.72l-1.38,0zm-8.8,11.01l0,1.17l8.36,0l0,-1.17l-3.53,0l0,-11.02l-1.3,0l0,11.02l-3.53,0zm-10.99,-11.01l0,12.17l1.23,0l6.47,-9.73l0,9.73l1.31,0l0,-12.17l-1.24,0l-6.47,9.76l0,-9.76l-1.3,0zm-9.99,0l0,12.17l7.57,0l0,-1.16l-6.26,0l0,-4.29l5.34,0l0,-1.16l-5.34,0l0,-4.41l6.26,0l0,-1.16l-7.57,0.01zm-13.68,0l0,12.17l1.3,0l3.97,-8.63l3.87,8.63l1.3,0l0,-12.17l-1.3,0l0,9.25l-3.34,-7.34l-1.11,0l-3.39,7.34l0,-9.25l-1.3,0zm-4.55,12.17l1.31,0l0,-12.17l-1.31,0l0,12.17zm-9.52,-12.17l0,12.17l1.3,0l0,-11.01l6.22,0l0,-1.16l-7.52,0zm-8.99,3.88l4.56,0l-2.26,6.43l-2.3,-6.43zm-2.74,-3.88l4.47,12.17l1.1,0l4.47,-12.17l-1.39,0l-0.98,2.72l-5.32,0l-0.98,-2.72l-1.37,0zm-8.45,6.09c0,-0.65 0.01,-1.18 0.02,-1.62c0.02,-0.44 0.06,-0.81 0.12,-1.12c0.05,-0.31 0.14,-0.57 0.26,-0.8c0.11,-0.22 0.26,-0.43 0.46,-0.62c0.26,-0.28 0.58,-0.49 0.95,-0.64c0.36,-0.16 0.75,-0.23 1.15,-0.23c0.4,0 0.78,0.07 1.15,0.23c0.37,0.15 0.69,0.36 0.95,0.64c0.2,0.19 0.35,0.4 0.46,0.62c0.11,0.23 0.2,0.49 0.26,0.8c0.05,0.31 0.09,0.68 0.11,1.12c0.01,0.44 0.02,0.97 0.02,1.62c0,0.64 -0.01,1.17 -0.02,1.61c-0.02,0.44 -0.06,0.81 -0.11,1.12c-0.06,0.31 -0.15,0.58 -0.26,0.8c-0.12,0.22 -0.27,0.43 -0.46,0.63c-0.26,0.27 -0.58,0.48 -0.95,0.63c-0.37,0.16 -0.75,0.23 -1.15,0.23c-0.4,0 -0.78,-0.07 -1.15,-0.23c-0.37,-0.15 -0.69,-0.36 -0.95,-0.63c-0.2,-0.2 -0.35,-0.41 -0.46,-0.63c-0.12,-0.22 -0.2,-0.49 -0.26,-0.8c-0.06,-0.31 -0.1,-0.68 -0.11,-1.12c-0.02,-0.43 -0.03,-0.97 -0.03,-1.61m-1.3,0c0,0.65 0,1.21 0.01,1.7c0.01,0.48 0.06,0.92 0.13,1.3c0.07,0.38 0.18,0.73 0.34,1.03c0.16,0.31 0.38,0.61 0.66,0.89c0.85,0.85 1.89,1.27 3.12,1.27c1.23,0 2.26,-0.42 3.11,-1.27c0.28,-0.28 0.5,-0.58 0.65,-0.89c0.16,-0.3 0.27,-0.65 0.35,-1.03c0.07,-0.38 0.11,-0.82 0.13,-1.3c0.01,-0.49 0.02,-1.05 0.02,-1.7c0,-0.66 -0.01,-1.23 -0.02,-1.71c-0.02,-0.48 -0.06,-0.92 -0.13,-1.3c-0.08,-0.38 -0.19,-0.72 -0.34,-1.03c-0.15,-0.31 -0.37,-0.61 -0.66,-0.89c-0.42,-0.42 -0.88,-0.73 -1.41,-0.94c-0.52,-0.22 -1.09,-0.32 -1.7,-0.32c-1.23,0 -2.27,0.42 -3.12,1.26c-0.28,0.28 -0.5,0.58 -0.66,0.89c-0.15,0.31 -0.27,0.65 -0.34,1.03c-0.07,0.38 -0.12,0.82 -0.13,1.3c-0.01,0.48 -0.01,1.05 -0.01,1.71m-9.19,0.45l3.25,0c0.72,0 1.31,0.19 1.76,0.55c0.45,0.37 0.67,0.93 0.67,1.69c0,0.75 -0.22,1.31 -0.67,1.68c-0.45,0.37 -1.04,0.55 -1.76,0.55l-3.25,0l0,-4.47zm-1.3,-6.54l0,12.17l4.67,0c0.53,0 1.01,-0.07 1.46,-0.23c0.45,-0.15 0.83,-0.37 1.15,-0.66c0.32,-0.3 0.57,-0.65 0.74,-1.07c0.18,-0.42 0.27,-0.89 0.27,-1.42c0,-0.89 -0.25,-1.63 -0.74,-2.19c-0.49,-0.57 -1.13,-0.93 -1.92,-1.09l2.89,-5.52l-1.52,0l-2.77,5.39l-2.93,0l0,-5.39l-1.3,0.01zm-11.3,6.08c0,0.65 0,1.22 0.01,1.71c0.01,0.48 0.06,0.91 0.13,1.3c0.07,0.38 0.18,0.72 0.34,1.03c0.16,0.31 0.38,0.61 0.66,0.89c0.85,0.85 1.89,1.27 3.12,1.27c0.57,0 1.11,-0.09 1.59,-0.27c0.49,-0.17 0.91,-0.42 1.28,-0.75c0.36,-0.32 0.66,-0.71 0.89,-1.16c0.24,-0.44 0.4,-0.93 0.5,-1.47l-1.31,0c-0.17,0.78 -0.51,1.39 -1.03,1.82c-0.52,0.44 -1.16,0.66 -1.92,0.66c-0.4,0 -0.79,-0.07 -1.16,-0.23c-0.36,-0.15 -0.68,-0.36 -0.94,-0.64c-0.2,-0.19 -0.35,-0.4 -0.46,-0.62c-0.12,-0.23 -0.21,-0.49 -0.26,-0.8c-0.06,-0.31 -0.1,-0.68 -0.12,-1.12c-0.01,-0.44 -0.02,-0.98 -0.02,-1.62c0,-0.64 0.01,-1.18 0.02,-1.61c0.02,-0.44 0.06,-0.82 0.12,-1.13c0.05,-0.31 0.14,-0.58 0.26,-0.81c0.11,-0.22 0.26,-0.43 0.46,-0.62c0.26,-0.28 0.58,-0.48 0.94,-0.63c0.37,-0.15 0.76,-0.22 1.16,-0.22c0.44,0 0.87,0.08 1.27,0.26c0.41,0.17 0.75,0.43 1.03,0.78c0.25,0.29 0.43,0.61 0.53,0.96c0.11,0.34 0.16,0.76 0.16,1.23l0,0.93l-2.99,0l0,1.16l4.29,0l0,-1.94c0,-0.71 -0.08,-1.31 -0.24,-1.81c-0.16,-0.49 -0.43,-0.94 -0.8,-1.33c-0.44,-0.47 -0.93,-0.82 -1.48,-1.05c-0.56,-0.24 -1.15,-0.35 -1.77,-0.35c-0.61,0 -1.18,0.1 -1.71,0.32c-0.53,0.22 -1,0.53 -1.41,0.93c-0.28,0.29 -0.5,0.58 -0.66,0.89c-0.16,0.31 -0.27,0.66 -0.34,1.04c-0.07,0.38 -0.12,0.81 -0.13,1.3c-0.01,0.48 -0.01,1.05 -0.01,1.7m-8.53,-2.2l4.56,0l-2.26,6.43l-2.3,-6.43zm-2.75,-3.88l4.48,12.17l1.1,0l4.47,-12.17l-1.39,0l-0.98,2.72l-5.32,0l-0.98,-2.72l-1.38,0zm-12.35,1.16l2.64,0c0.48,0 0.92,0.06 1.32,0.19c0.4,0.13 0.76,0.37 1.08,0.7c0.21,0.22 0.37,0.49 0.48,0.81c0.12,0.32 0.19,0.67 0.24,1.05c0.04,0.37 0.07,0.75 0.07,1.15c0.01,0.4 0.01,0.79 0.01,1.16c0,0.38 0,0.75 -0.01,1.12c0,0.37 -0.03,0.73 -0.07,1.06c-0.05,0.34 -0.12,0.66 -0.24,0.96c-0.11,0.29 -0.27,0.55 -0.48,0.76c-0.32,0.33 -0.68,0.56 -1.08,0.69c-0.4,0.14 -0.84,0.2 -1.32,0.2l-2.64,0l0,-9.85zm-1.31,-1.16l0,12.17l4.18,0c0.64,0 1.22,-0.09 1.75,-0.28c0.52,-0.2 0.96,-0.47 1.32,-0.84c0.32,-0.32 0.56,-0.67 0.73,-1.05c0.17,-0.39 0.28,-0.79 0.35,-1.2c0.07,-0.42 0.11,-0.85 0.12,-1.29c0,-0.44 0.01,-0.87 0.01,-1.29c0,-0.42 -0.01,-0.87 -0.01,-1.33c-0.01,-0.47 -0.05,-0.93 -0.12,-1.38c-0.07,-0.45 -0.18,-0.88 -0.35,-1.29c-0.16,-0.41 -0.4,-0.77 -0.73,-1.1c-0.36,-0.36 -0.81,-0.64 -1.33,-0.84c-0.53,-0.19 -1.11,-0.28 -1.74,-0.28l-4.18,0zm-8.98,3.88l4.55,0l-2.25,6.43l-2.3,-6.43zm-2.75,-3.88l4.48,12.17l1.09,0l4.47,-12.17l-1.38,0l-0.98,2.72l-5.32,0l-0.98,-2.72l-1.38,0zm-8.38,1.16l2.65,0c0.48,0 0.92,0.06 1.32,0.19c0.39,0.13 0.75,0.37 1.08,0.7c0.2,0.22 0.36,0.49 0.48,0.81c0.11,0.32 0.19,0.67 0.24,1.05c0.04,0.37 0.06,0.75 0.07,1.15c0.01,0.4 0.01,0.79 0.01,1.16c0,0.38 0,0.75 -0.01,1.12c-0.01,0.37 -0.03,0.73 -0.07,1.06c-0.05,0.34 -0.13,0.66 -0.24,0.96c-0.12,0.29 -0.28,0.55 -0.48,0.76c-0.32,0.33 -0.68,0.56 -1.08,0.69c-0.4,0.14 -0.84,0.2 -1.32,0.2l-2.65,0l0,-9.85zm-1.3,-1.16l0,12.17l4.17,0c0.65,0 1.23,-0.09 1.75,-0.28c0.52,-0.2 0.97,-0.47 1.33,-0.84c0.32,-0.32 0.56,-0.67 0.73,-1.05c0.16,-0.39 0.28,-0.79 0.35,-1.2c0.07,-0.42 0.11,-0.85 0.11,-1.29c0.01,-0.44 0.01,-0.87 0.01,-1.29c0,-0.42 0,-0.87 -0.01,-1.33c0,-0.47 -0.04,-0.93 -0.11,-1.38c-0.07,-0.45 -0.19,-0.88 -0.35,-1.29c-0.16,-0.41 -0.41,-0.77 -0.73,-1.1c-0.37,-0.36 -0.81,-0.64 -1.34,-0.84c-0.52,-0.19 -1.1,-0.28 -1.74,-0.28l-4.17,0zm-4.55,12.17l1.31,0l0,-12.17l-1.31,0l0,12.17zm-9.52,-12.17l0,12.17l1.3,0l0,-11.01l6.22,0l0,-1.16l-7.52,0zm-8.99,3.88l4.56,0l-2.26,6.43l-2.3,-6.43zm-2.75,-3.88l4.48,12.17l1.1,0l4.47,-12.17l-1.39,0l-0.98,2.72l-5.32,0l-0.98,-2.72l-1.38,0zm-9.52,6.09c0,0.64 0.01,1.21 0.02,1.7c0.01,0.48 0.05,0.92 0.12,1.3c0.07,0.38 0.19,0.73 0.35,1.03c0.15,0.31 0.37,0.61 0.66,0.89c0.41,0.41 0.88,0.73 1.41,0.94c0.53,0.22 1.1,0.32 1.71,0.32c0.54,0 1.05,-0.08 1.52,-0.24c0.46,-0.17 0.88,-0.4 1.26,-0.71c0.37,-0.31 0.67,-0.69 0.92,-1.14c0.24,-0.45 0.42,-0.96 0.52,-1.53l-1.34,0c-0.16,0.75 -0.49,1.35 -0.99,1.8c-0.5,0.44 -1.13,0.66 -1.89,0.66c-0.4,0 -0.79,-0.07 -1.16,-0.22c-0.37,-0.15 -0.69,-0.36 -0.95,-0.63c-0.19,-0.19 -0.35,-0.4 -0.46,-0.62c-0.11,-0.23 -0.2,-0.5 -0.26,-0.81c-0.06,-0.32 -0.09,-0.69 -0.11,-1.13c-0.02,-0.44 -0.03,-0.97 -0.03,-1.62c0,-0.64 0.01,-1.18 0.03,-1.61c0.02,-0.44 0.05,-0.82 0.11,-1.13c0.06,-0.31 0.15,-0.58 0.26,-0.81c0.11,-0.22 0.27,-0.43 0.46,-0.62c0.26,-0.27 0.58,-0.49 0.95,-0.63c0.37,-0.15 0.76,-0.22 1.16,-0.22c0.76,0 1.39,0.22 1.91,0.66c0.51,0.45 0.84,1.05 1,1.8l1.31,0c-0.1,-0.57 -0.28,-1.08 -0.52,-1.53c-0.25,-0.45 -0.55,-0.83 -0.92,-1.14c-0.38,-0.31 -0.8,-0.54 -1.26,-0.71c-0.47,-0.16 -0.98,-0.24 -1.52,-0.24c-0.61,0 -1.18,0.1 -1.71,0.32c-0.53,0.22 -1,0.53 -1.41,0.93c-0.29,0.29 -0.51,0.59 -0.66,0.9c-0.16,0.3 -0.28,0.65 -0.35,1.03c-0.07,0.38 -0.11,0.82 -0.12,1.3c-0.01,0.48 -0.02,1.05 -0.02,1.7m-13.66,6.09l1.4,0l2.88,-5.83l2.84,5.83l1.41,0l-3.6,-7.15l0,-5.03l-1.3,0l0,5.03l-3.63,7.15zm244.98,8.37l2.65,0c0.48,0 0.92,0.07 1.32,0.2c0.4,0.13 0.76,0.36 1.08,0.7c0.21,0.21 0.37,0.48 0.48,0.8c0.11,0.33 0.19,0.68 0.24,1.05c0.04,0.37 0.07,0.76 0.07,1.16c0.01,0.39 0.01,0.78 0.01,1.15c0,0.38 0,0.76 -0.01,1.13c0,0.37 -0.03,0.72 -0.07,1.06c-0.05,0.34 -0.13,0.65 -0.24,0.95c-0.11,0.3 -0.27,0.55 -0.48,0.76c-0.32,0.33 -0.68,0.57 -1.08,0.7c-0.4,0.13 -0.84,0.2 -1.32,0.2l-2.65,0l0,-9.86zm-1.3,-1.16l0,12.18l4.18,0c0.64,0 1.22,-0.1 1.74,-0.29c0.53,-0.19 0.97,-0.47 1.33,-0.84c0.32,-0.31 0.56,-0.66 0.73,-1.05c0.17,-0.39 0.28,-0.78 0.35,-1.2c0.07,-0.41 0.11,-0.84 0.11,-1.28c0.01,-0.44 0.01,-0.87 0.01,-1.29c0,-0.43 0,-0.87 -0.01,-1.34c0,-0.46 -0.04,-0.92 -0.11,-1.37c-0.07,-0.45 -0.18,-0.88 -0.35,-1.29c-0.16,-0.41 -0.41,-0.78 -0.73,-1.1c-0.37,-0.37 -0.81,-0.65 -1.34,-0.84c-0.52,-0.19 -1.1,-0.29 -1.73,-0.29l-4.18,0zm-8.98,3.88l4.55,0l-2.25,6.44l-2.3,-6.44zm-2.75,-3.88l4.48,12.18l1.09,0l4.47,-12.18l-1.39,0l-0.97,2.73l-5.33,0l-0.97,-2.73l-1.38,0zm-8.38,1.16l2.65,0c0.48,0 0.91,0.07 1.31,0.2c0.4,0.13 0.76,0.36 1.08,0.7c0.21,0.21 0.37,0.48 0.48,0.8c0.12,0.33 0.2,0.68 0.24,1.05c0.05,0.37 0.07,0.76 0.08,1.16c0,0.39 0.01,0.78 0.01,1.15c0,0.38 -0.01,0.76 -0.01,1.13c-0.01,0.37 -0.03,0.72 -0.08,1.06c-0.04,0.34 -0.12,0.65 -0.24,0.95c-0.11,0.3 -0.27,0.55 -0.48,0.77c-0.31,0.32 -0.67,0.56 -1.07,0.69c-0.4,0.13 -0.85,0.2 -1.32,0.2l-2.65,0l0,-9.86zm-1.3,-1.16l0,12.18l4.17,0c0.64,0 1.22,-0.1 1.75,-0.29c0.52,-0.19 0.96,-0.47 1.33,-0.84c0.31,-0.31 0.56,-0.66 0.72,-1.05c0.17,-0.39 0.29,-0.78 0.36,-1.2c0.07,-0.41 0.1,-0.84 0.11,-1.28c0.01,-0.44 0.01,-0.87 0.01,-1.29c0,-0.43 0,-0.87 -0.01,-1.34c-0.01,-0.46 -0.04,-0.92 -0.11,-1.37c-0.07,-0.45 -0.19,-0.88 -0.35,-1.29c-0.17,-0.41 -0.41,-0.78 -0.73,-1.1c-0.37,-0.37 -0.82,-0.65 -1.34,-0.84c-0.52,-0.19 -1.1,-0.29 -1.74,-0.29l-4.17,0zm-4.55,12.18l1.3,0l0,-12.18l-1.3,0l0,12.18zm-12.25,-12.18l0,12.18l1.23,0l6.47,-9.73l0,9.73l1.31,0l0,-12.18l-1.24,0l-6.47,9.77l0,-9.77l-1.3,0zm-8.98,3.88l4.55,0l-2.25,6.44l-2.3,-6.44zm-2.75,-3.88l4.48,12.18l1.09,0l4.47,-12.18l-1.39,0l-0.97,2.73l-5.33,0l-0.97,-2.73l-1.38,0zm-9.27,1.5l0.89,0.89c0.5,-0.5 1.01,-0.84 1.52,-1.04c0.51,-0.19 1.11,-0.29 1.8,-0.29c0.89,0 1.59,0.2 2.1,0.59c0.51,0.39 0.77,0.95 0.77,1.67c0,0.31 -0.05,0.61 -0.15,0.87c-0.09,0.26 -0.24,0.48 -0.44,0.66c-0.19,0.17 -0.4,0.28 -0.61,0.32c-0.22,0.04 -0.54,0.13 -0.97,0.25l-1.42,0.23c-0.97,0.16 -1.72,0.46 -2.24,0.91c-0.62,0.54 -0.93,1.3 -0.93,2.26c0,0.52 0.09,0.99 0.27,1.42c0.18,0.44 0.44,0.8 0.78,1.1c0.34,0.3 0.74,0.53 1.22,0.69c0.48,0.17 1.02,0.25 1.63,0.25c0.78,0 1.44,-0.11 2,-0.32c0.56,-0.21 1.1,-0.56 1.63,-1.04l-0.84,-0.84c-0.38,0.34 -0.78,0.6 -1.22,0.77c-0.43,0.18 -0.97,0.27 -1.62,0.27c-0.82,0 -1.45,-0.2 -1.89,-0.6c-0.45,-0.4 -0.67,-0.94 -0.67,-1.61c0,-0.6 0.16,-1.06 0.47,-1.37c0.18,-0.16 0.39,-0.29 0.64,-0.4c0.26,-0.11 0.53,-0.2 0.81,-0.25l1.34,-0.24c0.29,-0.05 0.54,-0.09 0.77,-0.13c0.23,-0.04 0.44,-0.1 0.63,-0.17c0.19,-0.07 0.37,-0.15 0.52,-0.23c0.16,-0.09 0.31,-0.19 0.45,-0.31c0.76,-0.59 1.14,-1.41 1.14,-2.47c0,-0.53 -0.1,-1.01 -0.3,-1.44c-0.2,-0.42 -0.48,-0.78 -0.86,-1.08c-0.36,-0.3 -0.81,-0.52 -1.33,-0.68c-0.52,-0.16 -1.09,-0.24 -1.72,-0.24c-0.91,0 -1.69,0.13 -2.35,0.38c-0.65,0.25 -1.26,0.66 -1.82,1.22m-12.92,-1.5l0,12.18l7.56,0l0,-1.16l-6.26,0l0,-4.29l5.34,0l0,-1.17l-5.34,0l0,-4.4l6.26,0l0,-1.16l-7.56,0zm-9.94,1.16l2.65,0c0.48,0 0.92,0.07 1.32,0.2c0.39,0.13 0.75,0.36 1.08,0.7c0.2,0.21 0.36,0.48 0.48,0.8c0.11,0.33 0.19,0.68 0.23,1.05c0.05,0.37 0.07,0.76 0.08,1.16c0.01,0.39 0.01,0.78 0.01,1.15c0,0.38 0,0.76 -0.01,1.13c-0.01,0.37 -0.03,0.72 -0.08,1.06c-0.04,0.34 -0.12,0.65 -0.23,0.95c-0.12,0.3 -0.28,0.55 -0.48,0.76c-0.32,0.33 -0.68,0.57 -1.08,0.7c-0.4,0.13 -0.84,0.2 -1.32,0.2l-2.65,0l0,-9.86zm-1.3,-1.16l0,12.18l4.18,0c0.64,0 1.22,-0.1 1.74,-0.29c0.52,-0.19 0.97,-0.47 1.33,-0.84c0.32,-0.31 0.56,-0.66 0.73,-1.05c0.16,-0.39 0.28,-0.78 0.35,-1.2c0.07,-0.41 0.11,-0.84 0.11,-1.28c0.01,-0.44 0.01,-0.87 0.01,-1.29c0,-0.43 0,-0.87 -0.01,-1.34c0,-0.46 -0.04,-0.92 -0.11,-1.37c-0.07,-0.45 -0.19,-0.88 -0.35,-1.29c-0.16,-0.41 -0.41,-0.78 -0.73,-1.1c-0.37,-0.37 -0.81,-0.65 -1.34,-0.84c-0.52,-0.19 -1.1,-0.29 -1.73,-0.29l-4.18,0zm-13.5,0l0,12.18l1.3,0l0,-11.02l6.22,0l0,-1.16l-7.52,0zm-8.99,3.88l4.55,0l-2.25,6.44l-2.3,-6.44zm-2.74,-3.88l4.47,12.18l1.1,0l4.47,-12.18l-1.39,0l-0.98,2.73l-5.32,0l-0.98,-2.73l-1.37,0zm-10.7,0l0,12.18l1.23,0l6.47,-9.73l0,9.73l1.3,0l0,-12.18l-1.23,0l-6.47,9.77l0,-9.77l-1.3,0zm-10,6.09c0,-0.64 0.01,-1.18 0.02,-1.62c0.02,-0.43 0.06,-0.81 0.12,-1.12c0.05,-0.31 0.14,-0.57 0.25,-0.79c0.12,-0.23 0.27,-0.43 0.47,-0.63c0.26,-0.27 0.57,-0.48 0.94,-0.64c0.37,-0.15 0.76,-0.23 1.16,-0.23c0.4,0 0.78,0.08 1.15,0.23c0.37,0.16 0.68,0.37 0.95,0.64c0.2,0.2 0.35,0.4 0.46,0.63c0.11,0.22 0.2,0.48 0.25,0.79c0.06,0.31 0.1,0.69 0.12,1.12c0.01,0.44 0.02,0.98 0.02,1.62c0,0.64 -0.01,1.18 -0.02,1.62c-0.02,0.43 -0.06,0.81 -0.12,1.12c-0.05,0.3 -0.14,0.57 -0.25,0.79c-0.12,0.23 -0.27,0.44 -0.46,0.63c-0.26,0.27 -0.58,0.49 -0.95,0.64c-0.37,0.15 -0.76,0.23 -1.15,0.23c-0.4,0 -0.79,-0.08 -1.16,-0.23c-0.37,-0.15 -0.68,-0.37 -0.94,-0.64c-0.2,-0.19 -0.35,-0.4 -0.47,-0.62c-0.11,-0.23 -0.2,-0.49 -0.25,-0.8c-0.06,-0.31 -0.1,-0.69 -0.12,-1.12c-0.01,-0.44 -0.02,-0.98 -0.02,-1.62m-1.3,0c0,0.65 0,1.22 0.01,1.71c0.01,0.48 0.05,0.91 0.13,1.29c0.07,0.39 0.18,0.73 0.34,1.04c0.16,0.31 0.37,0.61 0.66,0.89c0.85,0.85 1.89,1.27 3.12,1.26c1.23,0 2.26,-0.42 3.1,-1.26c0.29,-0.28 0.51,-0.58 0.66,-0.89c0.16,-0.31 0.27,-0.65 0.35,-1.04c0.07,-0.38 0.11,-0.81 0.13,-1.29c0.01,-0.49 0.02,-1.06 0.02,-1.71c0,-0.65 -0.01,-1.22 -0.02,-1.7c-0.02,-0.49 -0.06,-0.92 -0.13,-1.3c-0.08,-0.38 -0.19,-0.73 -0.34,-1.04c-0.15,-0.31 -0.38,-0.6 -0.67,-0.89c-0.41,-0.41 -0.87,-0.72 -1.4,-0.94c-0.52,-0.21 -1.09,-0.32 -1.7,-0.32c-1.23,0 -2.27,0.42 -3.12,1.26c-0.28,0.29 -0.5,0.58 -0.66,0.89c-0.16,0.31 -0.27,0.66 -0.34,1.04c-0.08,0.38 -0.12,0.81 -0.13,1.3c-0.01,0.48 -0.01,1.05 -0.01,1.7m-4.09,6.09l1.3,0l0,-12.18l-1.3,0l0,12.18zm-11.08,-6.09c0,0.65 0,1.22 0.02,1.71c0.01,0.48 0.05,0.91 0.12,1.29c0.07,0.39 0.19,0.73 0.34,1.04c0.16,0.31 0.38,0.61 0.67,0.89c0.41,0.41 0.88,0.72 1.41,0.94c0.53,0.21 1.1,0.32 1.7,0.32c0.55,0 1.06,-0.08 1.53,-0.24c0.46,-0.17 0.88,-0.41 1.25,-0.72c0.38,-0.3 0.68,-0.68 0.93,-1.13c0.24,-0.45 0.42,-0.96 0.52,-1.53l-1.34,0c-0.16,0.75 -0.49,1.35 -0.99,1.79c-0.5,0.45 -1.13,0.67 -1.9,0.67c-0.4,0 -0.78,-0.07 -1.15,-0.22c-0.37,-0.15 -0.69,-0.36 -0.95,-0.63c-0.19,-0.2 -0.35,-0.41 -0.46,-0.63c-0.11,-0.22 -0.2,-0.49 -0.26,-0.81c-0.06,-0.31 -0.1,-0.68 -0.11,-1.12c-0.02,-0.44 -0.03,-0.98 -0.03,-1.62c0,-0.64 0.01,-1.18 0.03,-1.61c0.01,-0.44 0.05,-0.82 0.11,-1.13c0.06,-0.32 0.15,-0.59 0.26,-0.81c0.11,-0.22 0.27,-0.43 0.46,-0.63c0.26,-0.27 0.58,-0.48 0.95,-0.63c0.37,-0.14 0.75,-0.22 1.15,-0.22c0.77,0 1.4,0.23 1.91,0.67c0.52,0.45 0.85,1.04 1.01,1.8l1.31,0c-0.1,-0.57 -0.28,-1.08 -0.52,-1.53c-0.25,-0.45 -0.55,-0.83 -0.93,-1.14c-0.37,-0.31 -0.79,-0.55 -1.25,-0.71c-0.47,-0.17 -0.98,-0.25 -1.53,-0.25c-0.6,0 -1.17,0.11 -1.7,0.33c-0.53,0.21 -1,0.53 -1.41,0.93c-0.29,0.29 -0.51,0.58 -0.67,0.89c-0.15,0.31 -0.27,0.66 -0.34,1.04c-0.07,0.38 -0.11,0.81 -0.12,1.3c-0.02,0.48 -0.02,1.05 -0.02,1.7m-8.52,-2.2l4.55,0l-2.26,6.43l-2.29,-6.43zm-2.75,-3.89l4.48,12.18l1.09,0l4.47,-12.18l-1.39,0l-0.97,2.73l-5.33,0l-0.97,-2.73l-1.38,0zm-10.7,0l0,12.18l1.23,0l6.48,-9.73l0,9.73l1.3,0l0,-12.18l-1.24,0l-6.46,9.77l0,-9.77l-1.31,0zm-13.98,6.09c0,-0.64 0.01,-1.18 0.03,-1.61c0.01,-0.44 0.05,-0.82 0.11,-1.12c0.06,-0.31 0.15,-0.58 0.26,-0.8c0.11,-0.23 0.27,-0.43 0.46,-0.63c0.26,-0.27 0.58,-0.48 0.95,-0.64c0.37,-0.15 0.75,-0.23 1.15,-0.23c0.41,0 0.79,0.08 1.16,0.23c0.36,0.16 0.68,0.37 0.95,0.64c0.19,0.2 0.34,0.4 0.46,0.63c0.11,0.22 0.19,0.49 0.25,0.8c0.06,0.3 0.1,0.68 0.11,1.12c0.02,0.43 0.03,0.97 0.03,1.61c0,0.64 -0.01,1.18 -0.03,1.62c-0.01,0.44 -0.05,0.81 -0.11,1.12c-0.06,0.31 -0.14,0.57 -0.26,0.8c-0.11,0.22 -0.26,0.43 -0.45,0.62c-0.26,0.27 -0.58,0.49 -0.95,0.64c-0.38,0.15 -0.76,0.23 -1.16,0.23c-0.4,0 -0.78,-0.08 -1.15,-0.23c-0.37,-0.15 -0.69,-0.37 -0.95,-0.64c-0.19,-0.19 -0.35,-0.4 -0.46,-0.62c-0.11,-0.23 -0.2,-0.49 -0.26,-0.8c-0.06,-0.31 -0.1,-0.68 -0.11,-1.12c-0.02,-0.44 -0.03,-0.98 -0.03,-1.62m-1.3,0c0,0.65 0.01,1.22 0.02,1.71c0.01,0.48 0.05,0.91 0.12,1.29c0.07,0.39 0.19,0.73 0.34,1.04c0.16,0.31 0.38,0.61 0.66,0.89c0.85,0.85 1.89,1.27 3.12,1.26c1.23,0 2.27,-0.42 3.11,-1.26c0.28,-0.28 0.5,-0.58 0.66,-0.89c0.15,-0.31 0.27,-0.65 0.34,-1.04c0.07,-0.38 0.12,-0.81 0.13,-1.29c0.01,-0.49 0.02,-1.06 0.02,-1.71c0,-0.65 -0.01,-1.22 -0.02,-1.7c-0.01,-0.49 -0.06,-0.92 -0.13,-1.3c-0.07,-0.38 -0.18,-0.73 -0.34,-1.04c-0.15,-0.31 -0.37,-0.6 -0.66,-0.89c-0.41,-0.41 -0.88,-0.72 -1.4,-0.94c-0.53,-0.21 -1.09,-0.32 -1.71,-0.32c-1.23,0 -2.27,0.42 -3.11,1.26c-0.29,0.29 -0.51,0.58 -0.66,0.89c-0.16,0.31 -0.28,0.66 -0.35,1.04c-0.07,0.38 -0.11,0.81 -0.12,1.3c-0.01,0.48 -0.02,1.05 -0.02,1.7m-4.09,6.09l1.31,0l0,-12.18l-1.31,0l0,12.18zm-11.08,-6.09c0,0.65 0.01,1.22 0.02,1.71c0.01,0.48 0.05,0.91 0.13,1.29c0.07,0.39 0.18,0.73 0.34,1.04c0.16,0.31 0.38,0.61 0.66,0.89c0.41,0.41 0.88,0.72 1.41,0.94c0.53,0.21 1.1,0.32 1.71,0.32c0.55,0 1.05,-0.08 1.52,-0.24c0.47,-0.17 0.89,-0.41 1.26,-0.72c0.37,-0.3 0.68,-0.68 0.92,-1.13c0.25,-0.45 0.42,-0.96 0.52,-1.53l-1.33,0c-0.17,0.75 -0.5,1.35 -1,1.79c-0.5,0.45 -1.13,0.67 -1.89,0.67c-0.4,0 -0.79,-0.07 -1.16,-0.22c-0.37,-0.15 -0.68,-0.36 -0.94,-0.63c-0.2,-0.2 -0.35,-0.41 -0.47,-0.63c-0.11,-0.22 -0.2,-0.49 -0.25,-0.81c-0.06,-0.31 -0.1,-0.68 -0.12,-1.12c-0.01,-0.44 -0.02,-0.98 -0.02,-1.62c0,-0.64 0.01,-1.18 0.02,-1.61c0.02,-0.44 0.06,-0.82 0.12,-1.13c0.05,-0.32 0.14,-0.59 0.25,-0.81c0.12,-0.22 0.27,-0.43 0.47,-0.63c0.26,-0.27 0.57,-0.48 0.94,-0.63c0.37,-0.14 0.76,-0.22 1.16,-0.22c0.76,0 1.4,0.23 1.91,0.67c0.51,0.45 0.85,1.04 1.01,1.8l1.3,0c-0.1,-0.57 -0.27,-1.08 -0.52,-1.53c-0.24,-0.45 -0.55,-0.83 -0.92,-1.14c-0.37,-0.31 -0.79,-0.55 -1.26,-0.71c-0.47,-0.17 -0.97,-0.25 -1.52,-0.25c-0.61,0 -1.18,0.11 -1.71,0.33c-0.53,0.21 -1,0.53 -1.41,0.93c-0.28,0.29 -0.5,0.58 -0.66,0.89c-0.16,0.31 -0.27,0.66 -0.34,1.04c-0.08,0.38 -0.12,0.81 -0.13,1.3c-0.01,0.48 -0.02,1.05 -0.02,1.7m-4.08,6.09l1.3,0l0,-12.18l-1.3,0l0,12.18zm-10.7,0l1.37,0l3.17,-9.85l3.16,9.85l1.38,0l-4.01,-12.18l-1.06,0l-4.01,12.18zm-8.01,-5.63l3.25,0c0.72,0 1.3,0.18 1.75,0.55c0.45,0.36 0.68,0.92 0.68,1.68c0,0.75 -0.23,1.31 -0.68,1.69c-0.45,0.36 -1.03,0.55 -1.75,0.55l-3.25,0l0,-4.47zm-1.3,-6.55l0,12.18l4.67,0c0.52,0 1.01,-0.08 1.46,-0.23c0.44,-0.15 0.83,-0.38 1.15,-0.67c0.32,-0.29 0.56,-0.65 0.74,-1.07c0.18,-0.42 0.26,-0.89 0.26,-1.41c0,-0.9 -0.24,-1.63 -0.73,-2.2c-0.5,-0.56 -1.14,-0.93 -1.92,-1.08l2.89,-5.52l-1.52,0l-2.78,5.39l-2.92,0l0,-5.39l-1.3,0zm-9.99,0l0,12.18l7.56,0l0,-1.16l-6.26,0l0,-4.29l5.34,0l0,-1.17l-5.34,0l0,-4.4l6.26,0l0,-1.16l-7.56,0zm-10.83,1.5l0.9,0.9c0.5,-0.5 1.01,-0.85 1.52,-1.05c0.51,-0.19 1.11,-0.29 1.79,-0.29c0.89,0 1.6,0.2 2.11,0.59c0.51,0.39 0.77,0.95 0.77,1.67c0,0.32 -0.05,0.61 -0.15,0.87c-0.1,0.27 -0.24,0.48 -0.44,0.66c-0.19,0.17 -0.4,0.28 -0.61,0.32c-0.22,0.04 -0.54,0.13 -0.97,0.25l-1.42,0.23c-0.97,0.16 -1.72,0.46 -2.24,0.91c-0.62,0.54 -0.93,1.3 -0.93,2.26c0,0.52 0.09,0.99 0.27,1.42c0.18,0.44 0.44,0.8 0.78,1.1c0.33,0.3 0.74,0.53 1.22,0.69c0.48,0.17 1.02,0.25 1.63,0.25c0.77,0 1.44,-0.11 2,-0.32c0.56,-0.21 1.1,-0.56 1.63,-1.04l-0.84,-0.84c-0.38,0.34 -0.78,0.6 -1.22,0.77c-0.43,0.18 -0.97,0.27 -1.62,0.27c-0.82,0 -1.45,-0.2 -1.9,-0.6c-0.44,-0.4 -0.66,-0.94 -0.66,-1.61c0,-0.6 0.15,-1.06 0.47,-1.37c0.17,-0.16 0.39,-0.29 0.64,-0.4c0.26,-0.11 0.52,-0.2 0.81,-0.25l1.34,-0.24c0.29,-0.05 0.54,-0.09 0.77,-0.13c0.23,-0.04 0.44,-0.1 0.63,-0.17c0.19,-0.07 0.36,-0.15 0.52,-0.23c0.16,-0.09 0.31,-0.19 0.45,-0.31c0.76,-0.59 1.14,-1.41 1.14,-2.47c0,-0.53 -0.1,-1.01 -0.3,-1.44c-0.2,-0.42 -0.49,-0.78 -0.86,-1.08c-0.37,-0.3 -0.81,-0.52 -1.33,-0.68c-0.52,-0.16 -1.1,-0.24 -1.72,-0.24c-0.91,0 -1.7,0.13 -2.35,0.38c-0.65,0.25 -1.26,0.66 -1.83,1.22" fill="#666666" fill-rule="nonzero" id="path30"/>
  </g>
 </g>
</svg>